<svg xmlns="http://www.w3.org/2000/svg" viewBox="0 0 1214 941"><defs><style>.cls-1,.cls-2{fill:none;}.cls-2{stroke:#4e768d;stroke-miterlimit:10;}.cls-3{fill:#7a98a9;}.cls-4{fill:#fff;}</style></defs><title>Asset 3</title><g id="Layer_2" data-name="Layer 2"><g id="BG"><rect class="cls-1" width="1214" height="941"/></g><g id="CONTENTS"><polyline class="cls-2" points="851.85 724.93 873.41 724.93 873.41 607.11 851.85 607.11"/><line class="cls-2" x1="872.62" y1="666.02" x2="892.62" y2="666.02"/><polyline class="cls-2" points="855.29 580.12 875.29 580.12 875.29 458.11 855.29 458.11"/><line class="cls-2" x1="875.29" y1="519.11" x2="895.29" y2="519.11"/><path class="cls-3" d="M242.11,159.34h2.12l-7.62,19.43h-2.05Z"/><path class="cls-3" d="M255.32,159.34h2.12l-7.62,19.43h-2.05Z"/><path class="cls-3" d="M276.86,178.73a3.46,3.46,0,0,0,1.39-.18,1.51,1.51,0,0,0,.5-.37,5.34,5.34,0,0,0,.38-2.57v-9.52h-4.2v-1.5h6.16V175a9.77,9.77,0,0,1-.44,3.64,2.24,2.24,0,0,1-1.18,1.18,7.24,7.24,0,0,1-2.6.41H274v-1.5Zm1.92-17.25v-1.06a.83.83,0,0,1,.44-.68,1.41,1.41,0,0,1,1.73,0,.83.83,0,0,1,.44.68v1.06a.83.83,0,0,1-.44.68,1.41,1.41,0,0,1-1.73,0A.83.83,0,0,1,278.78,161.47Z"/><path class="cls-3" d="M291.57,176.63a4.22,4.22,0,0,1-2.35-.67,4.9,4.9,0,0,1-1.65-1.83,12,12,0,0,1-1.27-5.79q0-4.27,1.69-6.52a4.3,4.3,0,0,1,1.51-1.27,4.8,4.8,0,0,1,4.15,0,5.07,5.07,0,0,1,2.44,3,14.24,14.24,0,0,1,.76,4.8,13.63,13.63,0,0,1-.8,4.8,5.33,5.33,0,0,1-2.44,3,12.59,12.59,0,0,0,3,3.76l-1.33,1.38a17.37,17.37,0,0,1-3.51-4.65Zm1.75-14a2.16,2.16,0,0,0-3.5,0,5.78,5.78,0,0,0-1.07,2.37,16.62,16.62,0,0,0,0,6.72,5.71,5.71,0,0,0,1.07,2.36,2.16,2.16,0,0,0,3.5,0,5.74,5.74,0,0,0,1.07-2.36,16.62,16.62,0,0,0,0-6.72A5.8,5.8,0,0,0,293.32,162.62Z"/><path class="cls-3" d="M309.76,172.54q0,4.09-4.55,4.09t-4.55-4.09v-8h2v8.13a2.4,2.4,0,0,0,.62,1.84,3.66,3.66,0,0,0,4,0,2.4,2.4,0,0,0,.62-1.84v-8.13h2Z"/><path class="cls-3" d="M316.19,175.81a4.92,4.92,0,0,1-1.83-2.21,7.88,7.88,0,0,1-.6-3.14,8.44,8.44,0,0,1,.55-3.14,5.2,5.2,0,0,1,1.65-2.25,3.86,3.86,0,0,1,2.42-.85,4.1,4.1,0,0,1,3.65,1.71,7.3,7.3,0,0,1,1.16,4.2v.66h-7.47a5.82,5.82,0,0,0,.91,3.08,2.84,2.84,0,0,0,2.53,1.27,9,9,0,0,0,3.15-1.22l.64,1.33a5.15,5.15,0,0,1-3.81,1.4A5.23,5.23,0,0,1,316.19,175.81Zm5.15-6.46q-.22-3.62-2.54-3.62-2.62,0-3,3.62Z"/><path class="cls-3" d="M330.83,176.36h-2V164.58h1.6l.16,2.18a4.88,4.88,0,0,1,1.89-1.89,5.41,5.41,0,0,1,2.65-.64h.95V166h-1.22a4.42,4.42,0,0,0-3,.94,3.53,3.53,0,0,0-1.1,2.83Z"/><path class="cls-3" d="M345.12,174.13l3.12-9.55h2.14q-3.27,9.22-3.86,10.74l-.81,2.07q-.22.55-.48,1.13a5.7,5.7,0,0,1-.63,1.06,3.38,3.38,0,0,1-.69.71,3.56,3.56,0,0,1-1,.43,11.36,11.36,0,0,1-2.62.2l-.23-1.64a12.18,12.18,0,0,0,1.71-.06l.54-.15a1.08,1.08,0,0,0,.39-.19l.32-.3a6.8,6.8,0,0,0,1.11-2.46q-3-7-4.37-10.36l-.46-1.17h2.12Z"/><path class="cls-3" d="M375.88,162.88a4.84,4.84,0,0,0-3.38-1.16,3.75,3.75,0,0,0-2,.56,4.36,4.36,0,0,0-1.46,1.49,8.84,8.84,0,0,0-1.16,4.61,9.37,9.37,0,0,0,1,4.57,3.92,3.92,0,0,0,1.34,1.47,3.29,3.29,0,0,0,1.81.54,4.65,4.65,0,0,0,1.62-.24,9.06,9.06,0,0,0,1.41-.69v-4.38h-3.56V168h5.41v6.94a13.73,13.73,0,0,1-2.38,1.25,7.18,7.18,0,0,1-2.62.44,5.53,5.53,0,0,1-2.7-.66,5.4,5.4,0,0,1-2-1.81,10.48,10.48,0,0,1-1.53-5.85,11,11,0,0,1,.5-3.37,7.74,7.74,0,0,1,1.38-2.61,6.26,6.26,0,0,1,2.09-1.65,5.88,5.88,0,0,1,2.61-.59,6.31,6.31,0,0,1,4.25,1.37Z"/><path class="cls-3" d="M382.15,169v5.78h7.56l-.16,1.57h-9.41v-16h9.22l-.17,1.57h-7v5.39h6.68V169Z"/><path class="cls-3" d="M403.14,160.35v1.57h-4.55v14.45h-2V161.91H392v-1.57Z"/><path class="cls-3" d="M238.74,257.54h1v2.54a6.18,6.18,0,0,1,3.56,1.17l-.75,1.55a5.24,5.24,0,0,0-2.8-1.06v5.49a11.27,11.27,0,0,1,2.35,1.22,5.52,5.52,0,0,1,1,1,4,4,0,0,1,.77,2.47,4.29,4.29,0,0,1-4.17,4.68v2.12h-1v-2.07a8.45,8.45,0,0,1-4.64-1.28l.76-1.79a6.35,6.35,0,0,0,3.88,1.41v-6q-1.38-.56-1.88-.8a5.54,5.54,0,0,1-2-1.53,3.59,3.59,0,0,1-.69-2.27,4.28,4.28,0,0,1,.6-2.33,4.53,4.53,0,0,1,3.94-2Zm0,9.3v-5.1a2.58,2.58,0,0,0-1.7.8,2.46,2.46,0,0,0-.62,1.72,2,2,0,0,0,.68,1.62A5.93,5.93,0,0,0,238.74,266.85Zm1,2.58v5.46a2.25,2.25,0,0,0,1.41-1,3.2,3.2,0,0,0,.49-1.79,2.49,2.49,0,0,0-.5-1.64A4.21,4.21,0,0,0,239.74,269.42Z"/><path class="cls-3" d="M254,276.36h-3.23v-3.23H254Z"/><path class="cls-3" d="M268.11,268.24q0-2.53-2.14-2.53a11.89,11.89,0,0,0-2.23.24,9.31,9.31,0,0,0-1.71.45l-.46-1.44a13.24,13.24,0,0,1,4.18-.74,5.08,5.08,0,0,1,3.14.89,3.22,3.22,0,0,1,1.18,2.75v8.5h-1.62l-.26-1.37a5.5,5.5,0,0,1-1.77,1.17,5.29,5.29,0,0,1-2.11.47,3.55,3.55,0,0,1-2.48-.9,3.25,3.25,0,0,1-1-2.54,2.59,2.59,0,0,1,1.29-2.4,5.62,5.62,0,0,1,1.85-.74q1-.2,2.56-.39l1.57-.18Zm0,5.49v-3l-1.6.23a12.94,12.94,0,0,0-2.32.47,1.9,1.9,0,0,0-1.44,1.84,1.93,1.93,0,0,0,.52,1.42,1.89,1.89,0,0,0,1.42.53A4.63,4.63,0,0,0,268.11,273.73Z"/><path class="cls-3" d="M276.86,278.73a3.46,3.46,0,0,0,1.39-.18,1.51,1.51,0,0,0,.5-.37,5.34,5.34,0,0,0,.38-2.57v-9.52h-4.2v-1.5h6.16V275a9.77,9.77,0,0,1-.44,3.64,2.24,2.24,0,0,1-1.18,1.18,7.24,7.24,0,0,1-2.6.41H274v-1.5Zm1.92-17.25v-1.06a.83.83,0,0,1,.44-.68,1.41,1.41,0,0,1,1.73,0,.83.83,0,0,1,.44.68v1.06a.83.83,0,0,1-.44.68,1.41,1.41,0,0,1-1.73,0A.83.83,0,0,1,278.78,261.47Z"/><path class="cls-3" d="M294.52,268.24q0-2.53-2.14-2.53a11.89,11.89,0,0,0-2.23.24,9.31,9.31,0,0,0-1.71.45L288,265a13.24,13.24,0,0,1,4.18-.74,5.08,5.08,0,0,1,3.14.89,3.22,3.22,0,0,1,1.18,2.75v8.5h-1.62l-.26-1.37a5.5,5.5,0,0,1-1.77,1.17,5.29,5.29,0,0,1-2.11.47,3.55,3.55,0,0,1-2.48-.9,3.25,3.25,0,0,1-1-2.54,2.59,2.59,0,0,1,1.29-2.4,5.62,5.62,0,0,1,1.85-.74q1-.2,2.56-.39l1.57-.18Zm0,5.49v-3l-1.6.23a12.94,12.94,0,0,0-2.32.47,1.9,1.9,0,0,0-1.44,1.84,1.93,1.93,0,0,0,.52,1.42,1.89,1.89,0,0,0,1.42.53A4.63,4.63,0,0,0,294.52,273.73Z"/><path class="cls-3" d="M300.29,264.58h2.23l2.8,4.53,2.8-4.53h2l-3.62,5.71,3.75,6.07h-2.17l-2.88-4.7-3,4.7H300.1l3.87-6Z"/><path class="cls-3" d="M319.19,278a16.12,16.12,0,0,1-3.28-9.92,16.69,16.69,0,0,1,3.24-10H321A18.31,18.31,0,0,0,318,268a16.64,16.64,0,0,0,.8,5.28,22,22,0,0,0,2.27,4.75Z"/><path class="cls-3" d="M330.52,271.47a2.36,2.36,0,0,0-.86-1.95,3.89,3.89,0,0,0-2.24-.78V267.3a3.89,3.89,0,0,0,2.25-.77,2.35,2.35,0,0,0,.86-1.95v-2.5a4.49,4.49,0,0,1,.88-3.08,3.84,3.84,0,0,1,2.95-1h2.48v1.46h-2.45a1.33,1.33,0,0,0-1.09.46,3.73,3.73,0,0,0-.38,2.11v2.59a3,3,0,0,1-1,2.53,6.63,6.63,0,0,1-1.61.84,4.48,4.48,0,0,1,2.17,1.41,3.57,3.57,0,0,1,.47,1.94V274a3.91,3.91,0,0,0,.37,2.1,1.3,1.3,0,0,0,1.11.48h2.45V278h-2.48a3.84,3.84,0,0,1-2.95-1,4.49,4.49,0,0,1-.88-3.08Z"/><path class="cls-3" d="M270.15,322.54q0,4.09-4.55,4.09T261,322.54v-8h2v8.13a2.4,2.4,0,0,0,.62,1.84,3.66,3.66,0,0,0,4,0,2.4,2.4,0,0,0,.62-1.84v-8.13h2Z"/><path class="cls-3" d="M278,326.36h-2V314.58h1.6l.16,2.18a4.88,4.88,0,0,1,1.89-1.89,5.41,5.41,0,0,1,2.65-.64h.95V316H282.1a4.42,4.42,0,0,0-3,.94,3.53,3.53,0,0,0-1.1,2.83Z"/><path class="cls-3" d="M296.56,326.36H295a7.37,7.37,0,0,1-3-.43,2.7,2.7,0,0,1-.82-.57q-.8-.83-.83-3.65V311.05h-3.52v-1.5h5.48v12.06a5.15,5.15,0,0,0,.39,2.62,1.45,1.45,0,0,0,1,.55,10.17,10.17,0,0,0,1.2.07h1.73Z"/><path class="cls-3" d="M307.06,317.45h-3.23v-3.22h3.23Zm0,7.37h-3.23v-3.23h3.23Z"/><path class="cls-3" d="M331,316l-.67-6.56h2.78l-.59,6.56Z"/><path class="cls-3" d="M349.42,319.25v7.11h-2V319.5a5.27,5.27,0,0,0-.59-3,2.09,2.09,0,0,0-1.78-.78,3,3,0,0,0-2.09.83,2.44,2.44,0,0,0-.89,1.79v8h-2v-16.6l2-.21V316a4.41,4.41,0,0,1,3.68-1.78Q349.42,314.22,349.42,319.25Z"/><path class="cls-3" d="M357.67,316.08v5.53a9.19,9.19,0,0,0,.11,1.63,2,2,0,0,0,.45,1,1.65,1.65,0,0,0,.88.51,6.53,6.53,0,0,0,1.46.13h2.16l-.11,1.5h-2q-3,0-4-1.12a4.06,4.06,0,0,1-.81-2.35,17.56,17.56,0,0,1-.08-1.77v-5h-3.33l.21-1.5h3.12v-4.06l2-.58v4.64h5v1.5Z"/><path class="cls-3" d="M370.87,316.08v5.53a9.39,9.39,0,0,0,.11,1.63,2,2,0,0,0,.45,1,1.67,1.67,0,0,0,.88.51,6.54,6.54,0,0,0,1.46.13h2.16l-.11,1.5h-2q-3,0-4-1.12a4.06,4.06,0,0,1-.81-2.35,17.27,17.27,0,0,1-.08-1.77v-5h-3.33l.21-1.5h3.12v-4.06l2-.58v4.64h5v1.5Z"/><path class="cls-3" d="M384.84,326.63a3.87,3.87,0,0,1-2-.53,3.64,3.64,0,0,1-1.34-1.35v6.13l-2,.21V314.58h2v1.62a4.16,4.16,0,0,1,1.38-1.43,3.54,3.54,0,0,1,1.94-.55,4.27,4.27,0,0,1,4.14,2.41,7.94,7.94,0,0,1,.77,3.63,7.27,7.27,0,0,1-1.62,5.11A4.19,4.19,0,0,1,384.84,326.63Zm-3.38-6.23q0,4.73,3.31,4.73,3,0,3-4.73a6.14,6.14,0,0,0-.8-3.65,2.65,2.65,0,0,0-2.21-1q-2.75,0-3.18,3.18A10.44,10.44,0,0,0,381.45,320.4Z"/><path class="cls-3" d="M399.48,317.45h-3.23v-3.22h3.23Zm0,7.37h-3.23v-3.23h3.23Z"/><path class="cls-3" d="M413.74,309.34h2.12l-7.62,19.43h-2.05Z"/><path class="cls-3" d="M426.95,309.34h2.12l-7.62,19.43h-2.05Z"/><path class="cls-3" d="M439.74,318.24q0-2.53-2.14-2.53a11.91,11.91,0,0,0-2.23.24,9.32,9.32,0,0,0-1.71.45L433.2,315a13.24,13.24,0,0,1,4.18-.74,5.09,5.09,0,0,1,3.14.89,3.23,3.23,0,0,1,1.18,2.75v8.5h-1.62l-.26-1.37a5.51,5.51,0,0,1-1.77,1.17,5.3,5.3,0,0,1-2.11.47,3.55,3.55,0,0,1-2.48-.9,3.25,3.25,0,0,1-1-2.54,2.59,2.59,0,0,1,1.29-2.4,5.63,5.63,0,0,1,1.85-.74q1-.2,2.56-.39l1.57-.18Zm0,5.49v-3l-1.6.23a12.94,12.94,0,0,0-2.32.47,1.9,1.9,0,0,0-1.44,1.84,1.93,1.93,0,0,0,.52,1.42,1.89,1.89,0,0,0,1.42.53A4.63,4.63,0,0,0,439.74,323.73Z"/><path class="cls-3" d="M450.85,326.63a3.87,3.87,0,0,1-2-.53,3.63,3.63,0,0,1-1.34-1.35v6.13l-2,.21V314.58h2v1.62a4.16,4.16,0,0,1,1.38-1.43,3.54,3.54,0,0,1,1.94-.55,4.27,4.27,0,0,1,4.14,2.41,7.94,7.94,0,0,1,.77,3.63,7.27,7.27,0,0,1-1.62,5.11A4.2,4.2,0,0,1,450.85,326.63Zm-3.38-6.23q0,4.73,3.31,4.73,3,0,3-4.73a6.14,6.14,0,0,0-.8-3.65,2.64,2.64,0,0,0-2.21-1q-2.75,0-3.18,3.18A10.44,10.44,0,0,0,447.46,320.4Z"/><path class="cls-3" d="M459.76,316.08v-1.5h5.32v10.28h3.37v1.5h-9.07v-1.5h3.74v-8.78Zm3-4.61v-1.06a.83.83,0,0,1,.43-.68,1.42,1.42,0,0,1,1.73,0,.83.83,0,0,1,.43.68v1.06a.83.83,0,0,1-.43.68,1.42,1.42,0,0,1-1.73,0A.83.83,0,0,1,462.8,311.47Z"/><path class="cls-3" d="M480.89,317.48v1.67h-7.2v-1.67Z"/><path class="cls-3" d="M489.69,316.08v5.53a9.19,9.19,0,0,0,.11,1.63,2,2,0,0,0,.45,1,1.65,1.65,0,0,0,.88.51,6.53,6.53,0,0,0,1.46.13h2.16l-.11,1.5h-2q-3,0-4-1.12a4.06,4.06,0,0,1-.81-2.35,17.56,17.56,0,0,1-.08-1.77v-5H484.4l.21-1.5h3.12v-4.06l2-.58v4.64h5v1.5Z"/><path class="cls-3" d="M507.07,315.94a7.34,7.34,0,0,1,1.28,4.49,6.91,6.91,0,0,1-1.39,4.48,4.58,4.58,0,0,1-3.76,1.71,5.07,5.07,0,0,1-2.26-.48,4.22,4.22,0,0,1-1.6-1.33,7.41,7.41,0,0,1-1.24-4.45,6.89,6.89,0,0,1,1.36-4.44,4.64,4.64,0,0,1,3.84-1.7A4.38,4.38,0,0,1,507.07,315.94Zm-3.87,9.18a2.77,2.77,0,0,0,2.79-2,6.56,6.56,0,0,0,.4-2.25,14.38,14.38,0,0,0-.09-1.8,4.75,4.75,0,0,0-.93-2.38,2.62,2.62,0,0,0-2.18-.92,2.73,2.73,0,0,0-2.73,2.08,7.11,7.11,0,0,0-.39,2.34,8.22,8.22,0,0,0,.68,3.57A2.47,2.47,0,0,0,503.2,325.13Z"/><path class="cls-3" d="M520.5,317.48v1.67h-7.2v-1.67Z"/><path class="cls-3" d="M533.8,325.59a4.56,4.56,0,0,1-3.21,1,5.69,5.69,0,0,1-2.43-.51,5,5,0,0,1-1.79-1.37,6.67,6.67,0,0,1-1.47-4.35,6.92,6.92,0,0,1,.67-3,5.58,5.58,0,0,1,2-2.27,5.72,5.72,0,0,1,3.23-.87,4.14,4.14,0,0,1,3,1l-.49,1.31a4.91,4.91,0,0,0-2.79-.83,3.13,3.13,0,0,0-2.58,1.33,5.39,5.39,0,0,0-1,3.39,5.3,5.3,0,0,0,1,3.37,3.18,3.18,0,0,0,2.62,1.31,4.73,4.73,0,0,0,2.81-.86Z"/><path class="cls-3" d="M545.36,318.24q0-2.53-2.14-2.53A11.91,11.91,0,0,0,541,316a9.32,9.32,0,0,0-1.71.45l-.46-1.44a13.24,13.24,0,0,1,4.18-.74,5.09,5.09,0,0,1,3.14.89,3.23,3.23,0,0,1,1.18,2.75v8.5h-1.62l-.26-1.37a5.51,5.51,0,0,1-1.77,1.17,5.3,5.3,0,0,1-2.11.47,3.55,3.55,0,0,1-2.48-.9,3.25,3.25,0,0,1-1-2.54,2.59,2.59,0,0,1,1.29-2.4,5.63,5.63,0,0,1,1.85-.74q1-.2,2.56-.39l1.57-.18Zm0,5.49v-3l-1.6.23a12.94,12.94,0,0,0-2.32.47,1.9,1.9,0,0,0-1.44,1.84,1.93,1.93,0,0,0,.52,1.42,1.89,1.89,0,0,0,1.42.53A4.63,4.63,0,0,0,545.36,323.73Z"/><path class="cls-3" d="M560.6,326.36H559a7.37,7.37,0,0,1-3-.43,2.7,2.7,0,0,1-.82-.57q-.8-.83-.83-3.65V311.05h-3.52v-1.5h5.48v12.06a5.15,5.15,0,0,0,.39,2.62,1.45,1.45,0,0,0,1,.55,10.17,10.17,0,0,0,1.2.07h1.73Z"/><path class="cls-3" d="M573.8,326.36h-1.56a7.38,7.38,0,0,1-3-.43,2.7,2.7,0,0,1-.82-.57q-.8-.83-.83-3.65V311.05h-3.52v-1.5h5.48v12.06a5.15,5.15,0,0,0,.39,2.62,1.44,1.44,0,0,0,1,.55,10.17,10.17,0,0,0,1.2.07h1.73Z"/><path class="cls-3" d="M584,326.36h-3.23v-3.23H584Z"/><path class="cls-3" d="M599.81,325.59a4.56,4.56,0,0,1-3.21,1,5.68,5.68,0,0,1-2.43-.51,5,5,0,0,1-1.79-1.37,6.67,6.67,0,0,1-1.47-4.35,6.91,6.91,0,0,1,.67-3,5.57,5.57,0,0,1,2-2.27,5.72,5.72,0,0,1,3.23-.87,4.14,4.14,0,0,1,3,1l-.49,1.31a4.91,4.91,0,0,0-2.79-.83,3.13,3.13,0,0,0-2.58,1.33,5.39,5.39,0,0,0-1,3.39,5.3,5.3,0,0,0,1,3.37,3.18,3.18,0,0,0,2.62,1.31,4.73,4.73,0,0,0,2.81-.86Z"/><path class="cls-3" d="M612.69,315.94a7.34,7.34,0,0,1,1.28,4.49,6.91,6.91,0,0,1-1.39,4.48,4.58,4.58,0,0,1-3.76,1.71,5.07,5.07,0,0,1-2.26-.48,4.22,4.22,0,0,1-1.6-1.33,7.41,7.41,0,0,1-1.24-4.45,6.89,6.89,0,0,1,1.36-4.44,4.64,4.64,0,0,1,3.84-1.7A4.38,4.38,0,0,1,612.69,315.94Zm-3.87,9.18a2.77,2.77,0,0,0,2.79-2,6.56,6.56,0,0,0,.4-2.25,14.38,14.38,0,0,0-.09-1.8,4.75,4.75,0,0,0-.93-2.38,2.62,2.62,0,0,0-2.18-.92,2.73,2.73,0,0,0-2.73,2.08,7.11,7.11,0,0,0-.39,2.34,8.22,8.22,0,0,0,.68,3.57A2.47,2.47,0,0,0,608.82,325.13Z"/><path class="cls-3" d="M622.62,316.05a2.52,2.52,0,0,1,2.48-1.83q2.24,0,2.54,3.23.05.6.05,1.35v7.55H625.9V319a7.19,7.19,0,0,0-.28-2.63,1.26,1.26,0,0,0-.51-.6,1.45,1.45,0,0,0-.51-.09,1.39,1.39,0,0,0-1.34,1.05,7.07,7.07,0,0,0-.26,2.28v7.3h-1.64v-7.19a5.57,5.57,0,0,0-.56-3.08,1,1,0,0,0-.83-.37,1.16,1.16,0,0,0-.93.47,3.71,3.71,0,0,0-.72,2.42v7.75h-1.79V314.58h1.56l.12,1.56a3.91,3.91,0,0,1,.86-1.36,1.85,1.85,0,0,1,1.37-.55,2.1,2.1,0,0,1,1.4.48A2.54,2.54,0,0,1,622.62,316.05Z"/><path class="cls-3" d="M638.18,309.34h2.12l-7.62,19.43h-2.05Z"/><path class="cls-3" d="M646.25,325.81a4.93,4.93,0,0,1-1.83-2.21,7.92,7.92,0,0,1-.6-3.14,8.44,8.44,0,0,1,.55-3.14,5.21,5.21,0,0,1,1.65-2.25,3.87,3.87,0,0,1,2.42-.85,4.1,4.1,0,0,1,3.65,1.71,7.3,7.3,0,0,1,1.16,4.2v.66H645.8a5.82,5.82,0,0,0,.91,3.08,2.83,2.83,0,0,0,2.53,1.27,9,9,0,0,0,3.15-1.22l.64,1.33a5.15,5.15,0,0,1-3.81,1.4A5.23,5.23,0,0,1,646.25,325.81Zm5.15-6.46q-.22-3.62-2.54-3.62-2.62,0-3,3.62Z"/><path class="cls-3" d="M662.71,314.22q3.66,0,3.66,4.64v7.5h-2V319.1a8.57,8.57,0,0,0-.13-1.78,2.37,2.37,0,0,0-.39-.88,2.13,2.13,0,0,0-1.79-.71,3.2,3.2,0,0,0-2.13.73,2.4,2.4,0,0,0-.87,1.93v8h-2V314.58H659l.11,1.28A4.19,4.19,0,0,1,662.71,314.22Z"/><path class="cls-3" d="M677.69,316.2v-6.44l2-.21v16.81h-2v-1.83a3.71,3.71,0,0,1-3.37,2.09,4,4,0,0,1-3.63-1.78,8.2,8.2,0,0,1-1.13-4.48,6.79,6.79,0,0,1,1.65-4.94,4.12,4.12,0,0,1,3.12-1.2,3.87,3.87,0,0,1,2.16.55A3.11,3.11,0,0,1,677.69,316.2Zm0,4.2q0-2.75-.82-3.71a2.88,2.88,0,0,0-2.32-1,2.59,2.59,0,0,0-2.7,2.06,9.66,9.66,0,0,0-.33,2.72q0,4.62,3,4.62T677.69,320.4Z"/><path class="cls-3" d="M688.49,326.63a3.87,3.87,0,0,1-2-.53,3.63,3.63,0,0,1-1.34-1.35v6.13l-2,.21V314.58h2v1.62a4.16,4.16,0,0,1,1.38-1.43,3.54,3.54,0,0,1,1.94-.55,4.27,4.27,0,0,1,4.14,2.41,7.94,7.94,0,0,1,.77,3.63,7.27,7.27,0,0,1-1.62,5.11A4.2,4.2,0,0,1,688.49,326.63Zm-3.38-6.23q0,4.73,3.31,4.73,3,0,3-4.73a6.14,6.14,0,0,0-.8-3.65,2.64,2.64,0,0,0-2.21-1q-2.75,0-3.18,3.18A10.44,10.44,0,0,0,685.1,320.4Z"/><path class="cls-3" d="M705.1,315.94a7.33,7.33,0,0,1,1.28,4.49,6.91,6.91,0,0,1-1.39,4.48,4.58,4.58,0,0,1-3.76,1.71,5.07,5.07,0,0,1-2.26-.48,4.22,4.22,0,0,1-1.6-1.33,7.41,7.41,0,0,1-1.24-4.45,6.89,6.89,0,0,1,1.36-4.44,4.64,4.64,0,0,1,3.84-1.7A4.39,4.39,0,0,1,705.1,315.94Zm-3.87,9.18a2.77,2.77,0,0,0,2.79-2,6.56,6.56,0,0,0,.4-2.25,14.57,14.57,0,0,0-.09-1.8,4.75,4.75,0,0,0-.93-2.38,2.61,2.61,0,0,0-2.17-.92,2.73,2.73,0,0,0-2.73,2.08,7.11,7.11,0,0,0-.39,2.34,8.22,8.22,0,0,0,.68,3.57A2.47,2.47,0,0,0,701.24,325.13Z"/><path class="cls-3" d="M710.6,316.08v-1.5h5.32v10.28h3.37v1.5h-9.07v-1.5H714v-8.78Zm3-4.61v-1.06a.83.83,0,0,1,.44-.68,1.41,1.41,0,0,1,1.73,0,.83.83,0,0,1,.44.68v1.06a.83.83,0,0,1-.44.68,1.41,1.41,0,0,1-1.73,0A.83.83,0,0,1,713.64,311.47Z"/><path class="cls-3" d="M728.73,314.22q3.66,0,3.66,4.64v7.5h-2V319.1a8.57,8.57,0,0,0-.13-1.78,2.37,2.37,0,0,0-.39-.88,2.13,2.13,0,0,0-1.79-.71,3.2,3.2,0,0,0-2.13.73,2.4,2.4,0,0,0-.87,1.93v8h-2V314.58H725l.11,1.28A4.19,4.19,0,0,1,728.73,314.22Z"/><path class="cls-3" d="M740.53,316.08v5.53a9.39,9.39,0,0,0,.11,1.63,2,2,0,0,0,.45,1,1.67,1.67,0,0,0,.88.51,6.54,6.54,0,0,0,1.46.13h2.16l-.11,1.5h-2q-3,0-4-1.12a4.06,4.06,0,0,1-.81-2.35,17.27,17.27,0,0,1-.08-1.77v-5h-3.33l.21-1.5h3.12v-4.06l2-.58v4.64h5v1.5Z"/><path class="cls-3" d="M753.46,316l-.67-6.56h2.78L755,316Z"/><path class="cls-3" d="M765.4,329.81l.55-6.52h2.76l-2,6.52Z"/><path class="cls-3" d="M265.25,366.08v5.53a9.39,9.39,0,0,0,.11,1.63,2,2,0,0,0,.45,1,1.67,1.67,0,0,0,.88.51,6.54,6.54,0,0,0,1.46.13h2.16l-.11,1.5h-2q-3,0-4-1.12a4.06,4.06,0,0,1-.81-2.35,17.27,17.27,0,0,1-.08-1.77v-5H260l.21-1.5h3.12v-4.06l2-.58v4.64h5v1.5Z"/><path class="cls-3" d="M279.11,374.13l3.12-9.55h2.14q-3.27,9.22-3.86,10.74l-.81,2.07q-.22.55-.48,1.13a5.65,5.65,0,0,1-.63,1.06,3.38,3.38,0,0,1-.69.71,3.56,3.56,0,0,1-1,.43,11.35,11.35,0,0,1-2.62.2l-.23-1.64a12.21,12.21,0,0,0,1.71-.06l.54-.15a1.08,1.08,0,0,0,.39-.19l.32-.3a6.8,6.8,0,0,0,1.11-2.46q-3-7-4.37-10.36l-.46-1.17h2.12Z"/><path class="cls-3" d="M292.42,376.63a3.87,3.87,0,0,1-2-.53,3.63,3.63,0,0,1-1.34-1.35v6.13l-2,.21V364.58h2v1.62a4.16,4.16,0,0,1,1.38-1.43,3.54,3.54,0,0,1,1.94-.55,4.27,4.27,0,0,1,4.14,2.41,7.94,7.94,0,0,1,.77,3.63,7.27,7.27,0,0,1-1.62,5.11A4.2,4.2,0,0,1,292.42,376.63ZM289,370.4q0,4.73,3.31,4.73,3,0,3-4.73a6.14,6.14,0,0,0-.8-3.65,2.64,2.64,0,0,0-2.21-1q-2.75,0-3.18,3.18A10.44,10.44,0,0,0,289,370.4Z"/><path class="cls-3" d="M303,375.81a4.93,4.93,0,0,1-1.83-2.21,7.92,7.92,0,0,1-.6-3.14,8.44,8.44,0,0,1,.55-3.14,5.21,5.21,0,0,1,1.65-2.25,3.87,3.87,0,0,1,2.42-.85,4.1,4.1,0,0,1,3.65,1.71,7.3,7.3,0,0,1,1.16,4.2v.66h-7.47a5.82,5.82,0,0,0,.91,3.08,2.83,2.83,0,0,0,2.53,1.27,9,9,0,0,0,3.15-1.22l.64,1.33a5.15,5.15,0,0,1-3.81,1.4A5.23,5.23,0,0,1,303,375.81Zm5.15-6.46q-.22-3.62-2.54-3.62-2.62,0-3,3.62Z"/><path class="cls-3" d="M320.26,367.45H317v-3.22h3.23Zm0,7.37H317v-3.23h3.23Z"/><path class="cls-3" d="M344.2,366l-.67-6.56h2.78l-.59,6.56Z"/><path class="cls-3" d="M362.67,362.88a4.84,4.84,0,0,0-3.38-1.16,3.75,3.75,0,0,0-2,.56,4.36,4.36,0,0,0-1.46,1.49,8.84,8.84,0,0,0-1.16,4.61,9.38,9.38,0,0,0,1,4.57,3.93,3.93,0,0,0,1.34,1.47,3.3,3.3,0,0,0,1.81.54,4.65,4.65,0,0,0,1.62-.24,9.06,9.06,0,0,0,1.41-.69v-4.38h-3.56V368h5.41v6.94a13.73,13.73,0,0,1-2.38,1.25,7.18,7.18,0,0,1-2.62.44A5.52,5.52,0,0,1,356,376a5.39,5.39,0,0,1-2-1.81,10.47,10.47,0,0,1-1.53-5.85,10.89,10.89,0,0,1,.5-3.37,7.72,7.72,0,0,1,1.38-2.61,6.26,6.26,0,0,1,2.09-1.65,5.88,5.88,0,0,1,2.61-.59,6.31,6.31,0,0,1,4.25,1.37Z"/><path class="cls-3" d="M368.95,369v5.78h7.56l-.16,1.57h-9.41v-16h9.22l-.17,1.57h-7v5.39h6.68V369Z"/><path class="cls-3" d="M389.94,360.35v1.57h-4.55v14.45h-2V361.91h-4.55v-1.57Z"/><path class="cls-3" d="M397,366l-.67-6.56h2.78l-.59,6.56Z"/><path class="cls-3" d="M408.94,379.81l.55-6.52h2.76l-2,6.52Z"/><path class="cls-3" d="M268.42,416.2v-6.44l2-.21v16.81h-2v-1.83a3.71,3.71,0,0,1-3.37,2.09,4,4,0,0,1-3.62-1.78,8.2,8.2,0,0,1-1.13-4.48,6.8,6.8,0,0,1,1.65-4.94,4.12,4.12,0,0,1,3.12-1.2,3.88,3.88,0,0,1,2.17.55A3.11,3.11,0,0,1,268.42,416.2Zm0,4.2q0-2.75-.82-3.71a2.88,2.88,0,0,0-2.32-1,2.59,2.59,0,0,0-2.7,2.06,9.7,9.7,0,0,0-.33,2.72q0,4.62,3,4.62T268.42,420.4Z"/><path class="cls-3" d="M281.31,418.24q0-2.53-2.14-2.53a11.91,11.91,0,0,0-2.23.24,9.32,9.32,0,0,0-1.71.45l-.46-1.44a13.24,13.24,0,0,1,4.18-.74,5.09,5.09,0,0,1,3.14.89,3.23,3.23,0,0,1,1.18,2.75v8.5h-1.62l-.26-1.37a5.51,5.51,0,0,1-1.77,1.17,5.3,5.3,0,0,1-2.11.47,3.55,3.55,0,0,1-2.48-.9,3.25,3.25,0,0,1-1-2.54,2.59,2.59,0,0,1,1.29-2.4,5.63,5.63,0,0,1,1.85-.74q1-.2,2.56-.39l1.57-.18Zm0,5.49v-3l-1.6.23a12.94,12.94,0,0,0-2.32.47,1.9,1.9,0,0,0-1.44,1.84,1.93,1.93,0,0,0,.52,1.42,1.89,1.89,0,0,0,1.42.53A4.63,4.63,0,0,0,281.31,423.73Z"/><path class="cls-3" d="M291.66,416.08v5.53a9.39,9.39,0,0,0,.11,1.63,2,2,0,0,0,.45,1,1.67,1.67,0,0,0,.88.51,6.54,6.54,0,0,0,1.46.13h2.16l-.11,1.5h-2q-3,0-4-1.12a4.06,4.06,0,0,1-.81-2.35,17.27,17.27,0,0,1-.08-1.77v-5h-3.33l.21-1.5h3.12v-4.06l2-.58v4.64h5v1.5Z"/><path class="cls-3" d="M307.72,418.24q0-2.53-2.14-2.53a11.91,11.91,0,0,0-2.23.24,9.32,9.32,0,0,0-1.71.45l-.46-1.44a13.24,13.24,0,0,1,4.18-.74,5.09,5.09,0,0,1,3.14.89,3.23,3.23,0,0,1,1.18,2.75v8.5h-1.62l-.26-1.37a5.51,5.51,0,0,1-1.77,1.17,5.3,5.3,0,0,1-2.11.47,3.55,3.55,0,0,1-2.48-.9,3.25,3.25,0,0,1-1-2.54,2.59,2.59,0,0,1,1.29-2.4,5.63,5.63,0,0,1,1.85-.74q1-.2,2.56-.39l1.57-.18Zm0,5.49v-3l-1.6.23a12.94,12.94,0,0,0-2.32.47,1.9,1.9,0,0,0-1.44,1.84,1.93,1.93,0,0,0,.52,1.42,1.89,1.89,0,0,0,1.42.53A4.63,4.63,0,0,0,307.72,423.73Z"/><path class="cls-3" d="M323.93,410.35v1.57h-4.55v14.45h-2V411.91h-4.55v-1.57Z"/><path class="cls-3" d="M331.92,424.13l3.12-9.55h2.14q-3.27,9.22-3.86,10.74l-.81,2.07q-.22.55-.48,1.13a5.65,5.65,0,0,1-.63,1.06,3.38,3.38,0,0,1-.69.71,3.56,3.56,0,0,1-1,.43,11.35,11.35,0,0,1-2.62.2l-.23-1.64a12.21,12.21,0,0,0,1.71-.06l.54-.15a1.08,1.08,0,0,0,.39-.19l.32-.3a6.8,6.8,0,0,0,1.11-2.46q-3-7-4.37-10.36l-.46-1.17h2.12Z"/><path class="cls-3" d="M345.23,426.63a3.87,3.87,0,0,1-2-.53,3.63,3.63,0,0,1-1.34-1.35v6.13l-2,.21V414.58h2v1.62a4.16,4.16,0,0,1,1.38-1.43,3.54,3.54,0,0,1,1.94-.55,4.27,4.27,0,0,1,4.14,2.41,7.94,7.94,0,0,1,.77,3.63,7.27,7.27,0,0,1-1.62,5.11A4.2,4.2,0,0,1,345.23,426.63Zm-3.38-6.23q0,4.73,3.31,4.73,3,0,3-4.73a6.14,6.14,0,0,0-.8-3.65,2.64,2.64,0,0,0-2.21-1q-2.75,0-3.18,3.18A10.44,10.44,0,0,0,341.85,420.4Z"/><path class="cls-3" d="M355.8,425.81A4.93,4.93,0,0,1,354,423.6a7.92,7.92,0,0,1-.6-3.14,8.44,8.44,0,0,1,.55-3.14,5.21,5.21,0,0,1,1.65-2.25,3.87,3.87,0,0,1,2.42-.85,4.1,4.1,0,0,1,3.65,1.71,7.3,7.3,0,0,1,1.16,4.2v.66h-7.47a5.82,5.82,0,0,0,.91,3.08,2.83,2.83,0,0,0,2.53,1.27,9,9,0,0,0,3.15-1.22l.64,1.33a5.15,5.15,0,0,1-3.81,1.4A5.23,5.23,0,0,1,355.8,425.81Zm5.15-6.46q-.22-3.62-2.54-3.62-2.62,0-3,3.62Z"/><path class="cls-3" d="M373.07,417.45h-3.23v-3.22h3.23Zm0,7.37h-3.23v-3.23h3.23Z"/><path class="cls-3" d="M397,416l-.67-6.56h2.78l-.59,6.56Z"/><path class="cls-3" d="M408.88,428.73a3.46,3.46,0,0,0,1.39-.18,1.51,1.51,0,0,0,.5-.37,5.34,5.34,0,0,0,.38-2.57v-9.52h-4.2v-1.5h6.16V425a9.77,9.77,0,0,1-.44,3.64,2.24,2.24,0,0,1-1.18,1.18,7.24,7.24,0,0,1-2.6.41h-2.83v-1.5Zm1.92-17.25v-1.06a.83.83,0,0,1,.44-.68,1.41,1.41,0,0,1,1.73,0,.83.83,0,0,1,.44.68v1.06a.83.83,0,0,1-.44.68,1.41,1.41,0,0,1-1.73,0A.83.83,0,0,1,410.8,411.47Z"/><path class="cls-3" d="M427.68,420.86a3.51,3.51,0,0,1,.7,2.36,3,3,0,0,1-1.18,2.48,4.59,4.59,0,0,1-2.95.93,9.55,9.55,0,0,1-2.46-.32,5.21,5.21,0,0,1-1.76-.75l.48-1.41a6,6,0,0,0,1.43.56,7.57,7.57,0,0,0,2.12.29,3.13,3.13,0,0,0,1.83-.48,1.48,1.48,0,0,0,.68-1.27,2.05,2.05,0,0,0-.34-1.25,2.24,2.24,0,0,0-1.3-.69l-2-.48a3.82,3.82,0,0,1-2.3-1.25,3.5,3.5,0,0,1-.57-2,3.2,3.2,0,0,1,1-2.26,3.9,3.9,0,0,1,2.9-1.05h.14a7.62,7.62,0,0,1,3.64.8l-.43,1.38a8.08,8.08,0,0,0-3.18-.67,2.67,2.67,0,0,0-1.64.5,1.49,1.49,0,0,0-.64,1.23,1.65,1.65,0,0,0,.32,1.11,2.35,2.35,0,0,0,1.22.59l2.05.5A4.18,4.18,0,0,1,427.68,420.86Z"/><path class="cls-3" d="M441.06,415.94a7.33,7.33,0,0,1,1.28,4.49,6.91,6.91,0,0,1-1.39,4.48,4.58,4.58,0,0,1-3.76,1.71,5.07,5.07,0,0,1-2.26-.48,4.22,4.22,0,0,1-1.6-1.33,7.41,7.41,0,0,1-1.24-4.45,6.89,6.89,0,0,1,1.36-4.44,4.64,4.64,0,0,1,3.84-1.7A4.39,4.39,0,0,1,441.06,415.94Zm-3.87,9.18a2.77,2.77,0,0,0,2.79-2,6.56,6.56,0,0,0,.4-2.25,14.57,14.57,0,0,0-.09-1.8,4.75,4.75,0,0,0-.93-2.38,2.61,2.61,0,0,0-2.17-.92,2.73,2.73,0,0,0-2.73,2.08,7.11,7.11,0,0,0-.39,2.34,8.22,8.22,0,0,0,.68,3.57A2.47,2.47,0,0,0,437.19,425.13Z"/><path class="cls-3" d="M451.48,414.22q3.66,0,3.66,4.64v7.5h-2V419.1a8.57,8.57,0,0,0-.13-1.78,2.37,2.37,0,0,0-.39-.88,2.13,2.13,0,0,0-1.79-.71,3.2,3.2,0,0,0-2.13.73,2.4,2.4,0,0,0-.87,1.93v8h-2V414.58h1.79l.11,1.28A4.19,4.19,0,0,1,451.48,414.22Z"/><path class="cls-3" d="M463,416l-.67-6.56h2.78l-.59,6.56Z"/><path class="cls-3" d="M475,429.81l.55-6.52h2.76l-2,6.52Z"/><path class="cls-3" d="M269.25,470.86a3.51,3.51,0,0,1,.7,2.36,3,3,0,0,1-1.18,2.48,4.59,4.59,0,0,1-2.95.93,9.55,9.55,0,0,1-2.46-.32,5.21,5.21,0,0,1-1.76-.75l.48-1.41a6,6,0,0,0,1.43.56,7.57,7.57,0,0,0,2.12.29,3.13,3.13,0,0,0,1.83-.48,1.48,1.48,0,0,0,.68-1.27,2.05,2.05,0,0,0-.34-1.25,2.24,2.24,0,0,0-1.3-.69l-2-.48a3.82,3.82,0,0,1-2.3-1.25,3.5,3.5,0,0,1-.57-2,3.2,3.2,0,0,1,1-2.26,3.9,3.9,0,0,1,2.9-1.05h.14a7.62,7.62,0,0,1,3.64.8l-.43,1.38a8.08,8.08,0,0,0-3.18-.67,2.67,2.67,0,0,0-1.64.5,1.49,1.49,0,0,0-.64,1.23,1.65,1.65,0,0,0,.32,1.11,2.35,2.35,0,0,0,1.22.59l2.05.5A4.18,4.18,0,0,1,269.25,470.86Z"/><path class="cls-3" d="M283.35,472.54q0,4.09-4.55,4.09t-4.55-4.09v-8h2v8.13a2.4,2.4,0,0,0,.62,1.84,3.66,3.66,0,0,0,4,0,2.4,2.4,0,0,0,.62-1.84v-8.13h2Z"/><path class="cls-3" d="M296.16,475.59a4.56,4.56,0,0,1-3.21,1,5.69,5.69,0,0,1-2.43-.51,5,5,0,0,1-1.79-1.37,6.67,6.67,0,0,1-1.47-4.35,6.92,6.92,0,0,1,.67-3,5.58,5.58,0,0,1,2-2.27,5.72,5.72,0,0,1,3.23-.87,4.14,4.14,0,0,1,3,1l-.49,1.31a4.91,4.91,0,0,0-2.79-.83,3.13,3.13,0,0,0-2.58,1.33,5.39,5.39,0,0,0-1,3.39,5.3,5.3,0,0,0,1,3.37,3.18,3.18,0,0,0,2.62,1.31,4.73,4.73,0,0,0,2.81-.86Z"/><path class="cls-3" d="M309.36,475.59a4.56,4.56,0,0,1-3.21,1,5.68,5.68,0,0,1-2.43-.51,5,5,0,0,1-1.79-1.37,6.67,6.67,0,0,1-1.47-4.35,6.91,6.91,0,0,1,.67-3,5.57,5.57,0,0,1,2-2.27,5.72,5.72,0,0,1,3.23-.87,4.14,4.14,0,0,1,3,1l-.49,1.31a4.91,4.91,0,0,0-2.79-.83,3.13,3.13,0,0,0-2.58,1.33,5.39,5.39,0,0,0-1,3.39,5.3,5.3,0,0,0,1,3.37,3.18,3.18,0,0,0,2.62,1.31,4.73,4.73,0,0,0,2.81-.86Z"/><path class="cls-3" d="M316.19,475.81a4.92,4.92,0,0,1-1.83-2.21,7.88,7.88,0,0,1-.6-3.14,8.44,8.44,0,0,1,.55-3.14,5.2,5.2,0,0,1,1.65-2.25,3.86,3.86,0,0,1,2.42-.85,4.1,4.1,0,0,1,3.65,1.71,7.3,7.3,0,0,1,1.16,4.2v.66h-7.47a5.82,5.82,0,0,0,.91,3.08,2.84,2.84,0,0,0,2.53,1.27,9,9,0,0,0,3.15-1.22l.64,1.33a5.15,5.15,0,0,1-3.81,1.4A5.23,5.23,0,0,1,316.19,475.81Zm5.15-6.46q-.22-3.62-2.54-3.62-2.62,0-3,3.62Z"/><path class="cls-3" d="M335.27,470.86a3.51,3.51,0,0,1,.7,2.36,3,3,0,0,1-1.18,2.48,4.59,4.59,0,0,1-2.95.93,9.55,9.55,0,0,1-2.46-.32,5.22,5.22,0,0,1-1.76-.75l.48-1.41a6.06,6.06,0,0,0,1.43.56,7.57,7.57,0,0,0,2.12.29,3.13,3.13,0,0,0,1.83-.48,1.48,1.48,0,0,0,.68-1.27,2.07,2.07,0,0,0-.34-1.25,2.25,2.25,0,0,0-1.31-.69l-2-.48a3.82,3.82,0,0,1-2.3-1.25,3.5,3.5,0,0,1-.57-2,3.19,3.19,0,0,1,1-2.26,3.9,3.9,0,0,1,2.89-1.05h.14a7.62,7.62,0,0,1,3.64.8l-.43,1.38a8.08,8.08,0,0,0-3.18-.67,2.67,2.67,0,0,0-1.64.5,1.49,1.49,0,0,0-.64,1.23,1.65,1.65,0,0,0,.32,1.11,2.35,2.35,0,0,0,1.22.59l2.05.5A4.18,4.18,0,0,1,335.27,470.86Z"/><path class="cls-3" d="M348.47,470.86a3.51,3.51,0,0,1,.7,2.36A3,3,0,0,1,348,475.7a4.59,4.59,0,0,1-2.95.93,9.55,9.55,0,0,1-2.46-.32,5.21,5.21,0,0,1-1.76-.75l.48-1.41a6,6,0,0,0,1.43.56,7.57,7.57,0,0,0,2.12.29,3.13,3.13,0,0,0,1.83-.48,1.48,1.48,0,0,0,.68-1.27A2.05,2.05,0,0,0,347,472a2.24,2.24,0,0,0-1.3-.69l-2-.48a3.82,3.82,0,0,1-2.3-1.25,3.5,3.5,0,0,1-.57-2,3.2,3.2,0,0,1,1-2.26,3.9,3.9,0,0,1,2.9-1.05h.14a7.62,7.62,0,0,1,3.64.8l-.43,1.38a8.08,8.08,0,0,0-3.18-.67,2.67,2.67,0,0,0-1.64.5,1.49,1.49,0,0,0-.64,1.23,1.65,1.65,0,0,0,.32,1.11,2.35,2.35,0,0,0,1.22.59l2.05.5A4.18,4.18,0,0,1,348.47,470.86Z"/><path class="cls-3" d="M358.8,478a16.12,16.12,0,0,1-3.28-9.92,16.69,16.69,0,0,1,3.24-10h1.89A18.31,18.31,0,0,0,357.6,468a16.62,16.62,0,0,0,.8,5.28,22,22,0,0,0,2.27,4.75Z"/><path class="cls-3" d="M370.44,476.36h-2V464.58h1.6l.16,2.18a4.89,4.89,0,0,1,1.89-1.89,5.41,5.41,0,0,1,2.65-.64h.95V466h-1.22a4.42,4.42,0,0,0-3,.94,3.53,3.53,0,0,0-1.1,2.83Z"/><path class="cls-3" d="M382.2,475.81a4.93,4.93,0,0,1-1.83-2.21,7.92,7.92,0,0,1-.6-3.14,8.44,8.44,0,0,1,.55-3.14,5.21,5.21,0,0,1,1.65-2.25,3.87,3.87,0,0,1,2.42-.85,4.1,4.1,0,0,1,3.65,1.71,7.3,7.3,0,0,1,1.16,4.2v.66h-7.47a5.82,5.82,0,0,0,.91,3.08,2.83,2.83,0,0,0,2.53,1.27,9,9,0,0,0,3.15-1.22l.64,1.33a5.15,5.15,0,0,1-3.81,1.4A5.23,5.23,0,0,1,382.2,475.81Zm5.15-6.46q-.22-3.62-2.54-3.62-2.62,0-3,3.62Z"/><path class="cls-3" d="M401.28,470.86a3.51,3.51,0,0,1,.7,2.36,3,3,0,0,1-1.18,2.48,4.59,4.59,0,0,1-2.95.93,9.55,9.55,0,0,1-2.46-.32,5.21,5.21,0,0,1-1.76-.75l.48-1.41a6,6,0,0,0,1.43.56,7.57,7.57,0,0,0,2.12.29,3.13,3.13,0,0,0,1.83-.48,1.48,1.48,0,0,0,.68-1.27,2.05,2.05,0,0,0-.34-1.25,2.24,2.24,0,0,0-1.3-.69l-2-.48a3.82,3.82,0,0,1-2.3-1.25,3.5,3.5,0,0,1-.57-2,3.2,3.2,0,0,1,1-2.26,3.9,3.9,0,0,1,2.9-1.05h.14a7.62,7.62,0,0,1,3.64.8l-.43,1.38a8.08,8.08,0,0,0-3.18-.67,2.67,2.67,0,0,0-1.64.5,1.49,1.49,0,0,0-.64,1.23,1.65,1.65,0,0,0,.32,1.11,2.35,2.35,0,0,0,1.22.59l2.05.5A4.18,4.18,0,0,1,401.28,470.86Z"/><path class="cls-3" d="M411.24,476.63a3.87,3.87,0,0,1-2-.53,3.64,3.64,0,0,1-1.34-1.35v6.13l-2,.21V464.58h2v1.62a4.16,4.16,0,0,1,1.38-1.43,3.54,3.54,0,0,1,1.94-.55,4.27,4.27,0,0,1,4.14,2.41,7.94,7.94,0,0,1,.77,3.63,7.27,7.27,0,0,1-1.62,5.11A4.19,4.19,0,0,1,411.24,476.63Zm-3.38-6.23q0,4.73,3.31,4.73,3,0,3-4.73a6.14,6.14,0,0,0-.8-3.65,2.65,2.65,0,0,0-2.21-1q-2.75,0-3.18,3.18A10.44,10.44,0,0,0,407.86,470.4Z"/><path class="cls-3" d="M427.86,465.94a7.34,7.34,0,0,1,1.28,4.49,6.91,6.91,0,0,1-1.39,4.48,4.58,4.58,0,0,1-3.76,1.71,5.07,5.07,0,0,1-2.26-.48,4.22,4.22,0,0,1-1.6-1.33,7.41,7.41,0,0,1-1.24-4.45,6.89,6.89,0,0,1,1.36-4.44,4.64,4.64,0,0,1,3.84-1.7A4.38,4.38,0,0,1,427.86,465.94ZM424,475.13a2.77,2.77,0,0,0,2.79-2,6.56,6.56,0,0,0,.4-2.25,14.38,14.38,0,0,0-.09-1.8,4.75,4.75,0,0,0-.93-2.38,2.62,2.62,0,0,0-2.18-.92,2.73,2.73,0,0,0-2.73,2.08,7.11,7.11,0,0,0-.39,2.34,8.22,8.22,0,0,0,.68,3.57A2.47,2.47,0,0,0,424,475.13Z"/><path class="cls-3" d="M438.28,464.22q3.66,0,3.66,4.64v7.5h-2V469.1a8.57,8.57,0,0,0-.13-1.78,2.37,2.37,0,0,0-.39-.88,2.13,2.13,0,0,0-1.79-.71,3.2,3.2,0,0,0-2.13.73,2.4,2.4,0,0,0-.87,1.93v8h-2V464.58h1.79l.11,1.28A4.19,4.19,0,0,1,438.28,464.22Z"/><path class="cls-3" d="M454.08,470.86a3.51,3.51,0,0,1,.7,2.36,3,3,0,0,1-1.18,2.48,4.59,4.59,0,0,1-2.95.93,9.55,9.55,0,0,1-2.46-.32,5.21,5.21,0,0,1-1.76-.75l.48-1.41a6,6,0,0,0,1.43.56,7.57,7.57,0,0,0,2.12.29,3.13,3.13,0,0,0,1.83-.48,1.48,1.48,0,0,0,.68-1.27,2.05,2.05,0,0,0-.34-1.25,2.24,2.24,0,0,0-1.3-.69l-2-.48a3.82,3.82,0,0,1-2.3-1.25,3.5,3.5,0,0,1-.57-2,3.2,3.2,0,0,1,1-2.26,3.9,3.9,0,0,1,2.9-1.05h.14a7.62,7.62,0,0,1,3.64.8l-.43,1.38a8.08,8.08,0,0,0-3.18-.67,2.67,2.67,0,0,0-1.64.5,1.49,1.49,0,0,0-.64,1.23,1.65,1.65,0,0,0,.32,1.11,2.35,2.35,0,0,0,1.22.59l2.05.5A4.18,4.18,0,0,1,454.08,470.86Z"/><path class="cls-3" d="M461.42,475.81a4.93,4.93,0,0,1-1.83-2.21,7.92,7.92,0,0,1-.6-3.14,8.44,8.44,0,0,1,.55-3.14,5.21,5.21,0,0,1,1.65-2.25,3.87,3.87,0,0,1,2.42-.85,4.1,4.1,0,0,1,3.65,1.71,7.3,7.3,0,0,1,1.16,4.2v.66H461a5.82,5.82,0,0,0,.91,3.08,2.83,2.83,0,0,0,2.53,1.27,9,9,0,0,0,3.15-1.22l.64,1.33a5.15,5.15,0,0,1-3.81,1.4A5.23,5.23,0,0,1,461.42,475.81Zm5.15-6.46q-.22-3.62-2.54-3.62-2.62,0-3,3.62Z"/><path class="cls-3" d="M475.74,458a16.69,16.69,0,0,1,3.24,10A16.12,16.12,0,0,1,475.7,478h-1.89a22,22,0,0,0,2.27-4.75,16.64,16.64,0,0,0,.8-5.28,18.31,18.31,0,0,0-3.05-9.93Z"/><path class="cls-3" d="M502.15,471.47a2.36,2.36,0,0,0-.87-1.95,3.88,3.88,0,0,0-2.24-.78V467.3a3.89,3.89,0,0,0,2.25-.77,2.35,2.35,0,0,0,.86-1.95v-2.5A4.49,4.49,0,0,1,503,459a3.84,3.84,0,0,1,2.95-1h2.48v1.46H506a1.33,1.33,0,0,0-1.09.46,3.74,3.74,0,0,0-.38,2.11v2.59a3,3,0,0,1-1,2.53,6.66,6.66,0,0,1-1.61.84,4.49,4.49,0,0,1,2.17,1.41,3.58,3.58,0,0,1,.47,1.94V474a3.9,3.9,0,0,0,.37,2.1,1.3,1.3,0,0,0,1.11.48h2.45V478H506a3.84,3.84,0,0,1-2.95-1,4.49,4.49,0,0,1-.87-3.08Z"/><path class="cls-3" d="M294.92,509.34H297l-7.62,19.43h-2.05Z"/><path class="cls-3" d="M308.13,509.34h2.12l-7.62,19.43h-2.05Z"/><path class="cls-3" d="M337.12,511.42l-.71,1.41a5,5,0,0,0-3.09-1.11,4.06,4.06,0,0,0-2.75.94q-2.13,1.81-2.13,5.67a9.68,9.68,0,0,0,.55,3.35,5.49,5.49,0,0,0,1.63,2.39,3.82,3.82,0,0,0,2.52.9,5.05,5.05,0,0,0,3.3-1.16l.7,1.51a6.25,6.25,0,0,1-4.24,1.31,5.77,5.77,0,0,1-3.46-1.08,6.82,6.82,0,0,1-2.29-3,10.2,10.2,0,0,1-.79-4,11.92,11.92,0,0,1,.5-3.67,7.79,7.79,0,0,1,1.38-2.61,6.21,6.21,0,0,1,2.08-1.64,5.85,5.85,0,0,1,2.59-.58A6.27,6.27,0,0,1,337.12,511.42Z"/><path class="cls-3" d="M348.65,515.94a7.34,7.34,0,0,1,1.28,4.49,6.91,6.91,0,0,1-1.39,4.48,4.58,4.58,0,0,1-3.76,1.71,5.07,5.07,0,0,1-2.26-.48,4.22,4.22,0,0,1-1.6-1.33,7.41,7.41,0,0,1-1.24-4.45,6.89,6.89,0,0,1,1.36-4.44,4.64,4.64,0,0,1,3.84-1.7A4.38,4.38,0,0,1,348.65,515.94Zm-3.87,9.18a2.77,2.77,0,0,0,2.79-2,6.56,6.56,0,0,0,.4-2.25,14.38,14.38,0,0,0-.09-1.8,4.75,4.75,0,0,0-.93-2.38,2.62,2.62,0,0,0-2.18-.92,2.73,2.73,0,0,0-2.73,2.08,7.11,7.11,0,0,0-.39,2.34,8.22,8.22,0,0,0,.68,3.57A2.47,2.47,0,0,0,344.78,525.13Z"/><path class="cls-3" d="M360.84,516.2v-6.44l2-.21v16.81h-2v-1.83a3.71,3.71,0,0,1-3.37,2.09,4,4,0,0,1-3.63-1.78,8.2,8.2,0,0,1-1.13-4.48,6.79,6.79,0,0,1,1.65-4.94,4.12,4.12,0,0,1,3.12-1.2,3.87,3.87,0,0,1,2.16.55A3.11,3.11,0,0,1,360.84,516.2Zm0,4.2q0-2.75-.82-3.71a2.88,2.88,0,0,0-2.32-1,2.59,2.59,0,0,0-2.7,2.06,9.66,9.66,0,0,0-.33,2.72q0,4.62,3,4.62T360.84,520.4Z"/><path class="cls-3" d="M369,525.81a4.92,4.92,0,0,1-1.83-2.21,7.88,7.88,0,0,1-.6-3.14,8.44,8.44,0,0,1,.55-3.14,5.2,5.2,0,0,1,1.65-2.25,3.86,3.86,0,0,1,2.42-.85,4.1,4.1,0,0,1,3.65,1.71,7.3,7.3,0,0,1,1.16,4.2v.66h-7.47a5.82,5.82,0,0,0,.91,3.08,2.84,2.84,0,0,0,2.53,1.27,9,9,0,0,0,3.15-1.22l.64,1.33a5.15,5.15,0,0,1-3.81,1.4A5.23,5.23,0,0,1,369,525.81Zm5.15-6.46q-.22-3.62-2.54-3.62-2.62,0-3,3.62Z"/><path class="cls-3" d="M397.28,516.08v5.53a9.39,9.39,0,0,0,.11,1.63,2,2,0,0,0,.45,1,1.67,1.67,0,0,0,.88.51,6.54,6.54,0,0,0,1.46.13h2.16l-.11,1.5h-2q-3,0-4-1.12a4.06,4.06,0,0,1-.81-2.35,17.27,17.27,0,0,1-.08-1.77v-5H392l.21-1.5h3.12v-4.06l2-.58v4.64h5v1.5Z"/><path class="cls-3" d="M414.66,515.94a7.33,7.33,0,0,1,1.28,4.49,6.91,6.91,0,0,1-1.39,4.48,4.58,4.58,0,0,1-3.76,1.71,5.07,5.07,0,0,1-2.26-.48,4.22,4.22,0,0,1-1.6-1.33,7.41,7.41,0,0,1-1.24-4.45,6.89,6.89,0,0,1,1.36-4.44,4.64,4.64,0,0,1,3.84-1.7A4.39,4.39,0,0,1,414.66,515.94Zm-3.87,9.18a2.77,2.77,0,0,0,2.79-2,6.56,6.56,0,0,0,.4-2.25,14.57,14.57,0,0,0-.09-1.8,4.75,4.75,0,0,0-.93-2.38,2.61,2.61,0,0,0-2.17-.92,2.73,2.73,0,0,0-2.73,2.08,7.11,7.11,0,0,0-.39,2.34,8.22,8.22,0,0,0,.68,3.57A2.47,2.47,0,0,0,410.79,525.13Z"/><path class="cls-3" d="M435,525.81a4.93,4.93,0,0,1-1.83-2.21,7.92,7.92,0,0,1-.6-3.14,8.44,8.44,0,0,1,.55-3.14,5.21,5.21,0,0,1,1.65-2.25,3.87,3.87,0,0,1,2.42-.85,4.1,4.1,0,0,1,3.65,1.71,7.3,7.3,0,0,1,1.16,4.2v.66h-7.47a5.82,5.82,0,0,0,.91,3.08,2.83,2.83,0,0,0,2.53,1.27,9,9,0,0,0,3.15-1.22l.64,1.33a5.15,5.15,0,0,1-3.81,1.4A5.23,5.23,0,0,1,435,525.81Zm5.15-6.46q-.22-3.62-2.54-3.62-2.62,0-3,3.62Z"/><path class="cls-3" d="M445.52,514.58h2.23l2.8,4.53,2.8-4.53h2l-3.62,5.71,3.75,6.07h-2.17l-2.88-4.7-3,4.7h-2.15l3.87-6Z"/><path class="cls-3" d="M461.42,525.81a4.93,4.93,0,0,1-1.83-2.21,7.92,7.92,0,0,1-.6-3.14,8.44,8.44,0,0,1,.55-3.14,5.21,5.21,0,0,1,1.65-2.25,3.87,3.87,0,0,1,2.42-.85,4.1,4.1,0,0,1,3.65,1.71,7.3,7.3,0,0,1,1.16,4.2v.66H461a5.82,5.82,0,0,0,.91,3.08,2.83,2.83,0,0,0,2.53,1.27,9,9,0,0,0,3.15-1.22l.64,1.33a5.15,5.15,0,0,1-3.81,1.4A5.23,5.23,0,0,1,461.42,525.81Zm5.15-6.46q-.22-3.62-2.54-3.62-2.62,0-3,3.62Z"/><path class="cls-3" d="M481,525.59a4.56,4.56,0,0,1-3.21,1,5.69,5.69,0,0,1-2.43-.51,5,5,0,0,1-1.79-1.37,6.67,6.67,0,0,1-1.47-4.35,6.92,6.92,0,0,1,.67-3,5.58,5.58,0,0,1,2-2.27,5.72,5.72,0,0,1,3.23-.87,4.14,4.14,0,0,1,3,1l-.49,1.31a4.91,4.91,0,0,0-2.79-.83,3.13,3.13,0,0,0-2.58,1.33,5.39,5.39,0,0,0-1,3.39,5.3,5.3,0,0,0,1,3.37,3.18,3.18,0,0,0,2.62,1.31,4.73,4.73,0,0,0,2.81-.86Z"/><path class="cls-3" d="M494.59,522.54q0,4.09-4.55,4.09t-4.55-4.09v-8h2v8.13a2.4,2.4,0,0,0,.62,1.84,3.66,3.66,0,0,0,4,0,2.4,2.4,0,0,0,.62-1.84v-8.13h2Z"/><path class="cls-3" d="M502.89,516.08v5.53a9.39,9.39,0,0,0,.11,1.63,2,2,0,0,0,.45,1,1.67,1.67,0,0,0,.88.51,6.54,6.54,0,0,0,1.46.13H508l-.11,1.5h-2q-3,0-4-1.12a4.06,4.06,0,0,1-.81-2.35,17.27,17.27,0,0,1-.08-1.77v-5h-3.33l.21-1.5h3.12v-4.06l2-.58v4.64h5v1.5Z"/><path class="cls-3" d="M514.23,525.81a4.93,4.93,0,0,1-1.83-2.21,7.92,7.92,0,0,1-.6-3.14,8.44,8.44,0,0,1,.55-3.14,5.21,5.21,0,0,1,1.65-2.25,3.87,3.87,0,0,1,2.42-.85,4.1,4.1,0,0,1,3.65,1.71,7.3,7.3,0,0,1,1.16,4.2v.66h-7.47a5.82,5.82,0,0,0,.91,3.08,2.83,2.83,0,0,0,2.53,1.27,9,9,0,0,0,3.15-1.22l.64,1.33a5.15,5.15,0,0,1-3.81,1.4A5.23,5.23,0,0,1,514.23,525.81Zm5.15-6.46q-.22-3.62-2.54-3.62-2.62,0-3,3.62Z"/><path class="cls-3" d="M540.79,526.36h-2l-2.3-11.79h2l1.41,9.1,2-9.1h2.33l1.92,9.07,1.24-9.07h1.85L547,526.36h-2.06l-2-10.24Z"/><path class="cls-3" d="M552.18,516.08v-1.5h5.32v10.28h3.37v1.5H551.8v-1.5h3.74v-8.78Zm3-4.61v-1.06a.83.83,0,0,1,.44-.68,1.41,1.41,0,0,1,1.73,0,.83.83,0,0,1,.44.68v1.06a.83.83,0,0,1-.44.68,1.41,1.41,0,0,1-1.73,0A.83.83,0,0,1,555.22,511.47Z"/><path class="cls-3" d="M568.9,516.08v5.53a9.19,9.19,0,0,0,.11,1.63,2,2,0,0,0,.45,1,1.65,1.65,0,0,0,.88.51,6.53,6.53,0,0,0,1.46.13H574l-.11,1.5h-2q-3,0-4-1.12a4.06,4.06,0,0,1-.81-2.35,17.56,17.56,0,0,1-.08-1.77v-5h-3.33l.21-1.5h3.12v-4.06l2-.58v4.64h5v1.5Z"/><path class="cls-3" d="M587.06,519.25v7.11h-2V519.5a5.27,5.27,0,0,0-.59-3,2.09,2.09,0,0,0-1.78-.78,3,3,0,0,0-2.09.83,2.44,2.44,0,0,0-.89,1.79v8h-2v-16.6l2-.21V516a4.41,4.41,0,0,1,3.68-1.78Q587.06,514.22,587.06,519.25Z"/><path class="cls-3" d="M608.08,526.36h-2V514.58h1.6l.16,2.18a4.89,4.89,0,0,1,1.89-1.89,5.41,5.41,0,0,1,2.65-.64h.95V516h-1.22a4.42,4.42,0,0,0-3,.94,3.53,3.53,0,0,0-1.1,2.83Z"/><path class="cls-3" d="M619.84,525.81A4.93,4.93,0,0,1,618,523.6a7.92,7.92,0,0,1-.6-3.14,8.44,8.44,0,0,1,.55-3.14,5.21,5.21,0,0,1,1.65-2.25,3.87,3.87,0,0,1,2.42-.85,4.1,4.1,0,0,1,3.65,1.71,7.3,7.3,0,0,1,1.16,4.2v.66h-7.47a5.82,5.82,0,0,0,.91,3.08,2.83,2.83,0,0,0,2.53,1.27A9,9,0,0,0,626,523.9l.64,1.33a5.15,5.15,0,0,1-3.81,1.4A5.23,5.23,0,0,1,619.84,525.81Zm5.15-6.46q-.22-3.62-2.54-3.62-2.62,0-3,3.62Z"/><path class="cls-3" d="M638.91,520.86a3.51,3.51,0,0,1,.7,2.36,3,3,0,0,1-1.18,2.48,4.59,4.59,0,0,1-2.95.93,9.55,9.55,0,0,1-2.46-.32,5.21,5.21,0,0,1-1.76-.75l.48-1.41a6,6,0,0,0,1.43.56,7.57,7.57,0,0,0,2.12.29,3.13,3.13,0,0,0,1.83-.48,1.48,1.48,0,0,0,.68-1.27,2.05,2.05,0,0,0-.34-1.25,2.24,2.24,0,0,0-1.3-.69l-2-.48a3.82,3.82,0,0,1-2.3-1.25,3.5,3.5,0,0,1-.57-2,3.2,3.2,0,0,1,1-2.26,3.9,3.9,0,0,1,2.9-1.05h.14a7.62,7.62,0,0,1,3.64.8l-.43,1.38a8.08,8.08,0,0,0-3.18-.67,2.67,2.67,0,0,0-1.64.5,1.49,1.49,0,0,0-.64,1.23,1.65,1.65,0,0,0,.32,1.11,2.35,2.35,0,0,0,1.22.59l2.05.5A4.18,4.18,0,0,1,638.91,520.86Z"/><path class="cls-3" d="M648.88,526.63a3.87,3.87,0,0,1-2-.53,3.64,3.64,0,0,1-1.34-1.35v6.13l-2,.21V514.58h2v1.62a4.16,4.16,0,0,1,1.38-1.43,3.54,3.54,0,0,1,1.94-.55,4.27,4.27,0,0,1,4.14,2.41,7.94,7.94,0,0,1,.77,3.63,7.27,7.27,0,0,1-1.62,5.11A4.19,4.19,0,0,1,648.88,526.63Zm-3.38-6.23q0,4.73,3.31,4.73,3,0,3-4.73a6.14,6.14,0,0,0-.8-3.65,2.65,2.65,0,0,0-2.21-1q-2.75,0-3.18,3.18A10.44,10.44,0,0,0,645.49,520.4Z"/><path class="cls-3" d="M665.5,515.94a7.34,7.34,0,0,1,1.28,4.49,6.91,6.91,0,0,1-1.39,4.48,4.58,4.58,0,0,1-3.76,1.71,5.07,5.07,0,0,1-2.26-.48,4.22,4.22,0,0,1-1.6-1.33,7.41,7.41,0,0,1-1.24-4.45,6.89,6.89,0,0,1,1.36-4.44,4.64,4.64,0,0,1,3.84-1.7A4.38,4.38,0,0,1,665.5,515.94Zm-3.87,9.18a2.77,2.77,0,0,0,2.79-2,6.56,6.56,0,0,0,.4-2.25,14.38,14.38,0,0,0-.09-1.8,4.75,4.75,0,0,0-.93-2.38,2.62,2.62,0,0,0-2.18-.92,2.73,2.73,0,0,0-2.73,2.08,7.11,7.11,0,0,0-.39,2.34,8.22,8.22,0,0,0,.68,3.57A2.47,2.47,0,0,0,661.63,525.13Z"/><path class="cls-3" d="M675.92,514.22q3.66,0,3.66,4.64v7.5h-2V519.1a8.57,8.57,0,0,0-.13-1.78,2.37,2.37,0,0,0-.39-.88,2.13,2.13,0,0,0-1.79-.71,3.2,3.2,0,0,0-2.13.73,2.4,2.4,0,0,0-.87,1.93v8h-2V514.58h1.79l.11,1.28A4.19,4.19,0,0,1,675.92,514.22Z"/><path class="cls-3" d="M691.72,520.86a3.51,3.51,0,0,1,.7,2.36,3,3,0,0,1-1.18,2.48,4.59,4.59,0,0,1-2.95.93,9.55,9.55,0,0,1-2.46-.32,5.21,5.21,0,0,1-1.76-.75l.48-1.41a6,6,0,0,0,1.43.56,7.57,7.57,0,0,0,2.12.29,3.13,3.13,0,0,0,1.83-.48,1.48,1.48,0,0,0,.68-1.27,2.05,2.05,0,0,0-.34-1.25,2.24,2.24,0,0,0-1.3-.69l-2-.48a3.82,3.82,0,0,1-2.3-1.25,3.5,3.5,0,0,1-.57-2,3.2,3.2,0,0,1,1-2.26,3.9,3.9,0,0,1,2.9-1.05h.14a7.62,7.62,0,0,1,3.64.8l-.43,1.38a8.08,8.08,0,0,0-3.18-.67,2.67,2.67,0,0,0-1.64.5,1.49,1.49,0,0,0-.64,1.23,1.65,1.65,0,0,0,.32,1.11,2.35,2.35,0,0,0,1.22.59l2.05.5A4.18,4.18,0,0,1,691.72,520.86Z"/><path class="cls-3" d="M699.06,525.81a4.93,4.93,0,0,1-1.83-2.21,7.92,7.92,0,0,1-.6-3.14,8.44,8.44,0,0,1,.55-3.14,5.21,5.21,0,0,1,1.65-2.25,3.87,3.87,0,0,1,2.42-.85,4.1,4.1,0,0,1,3.65,1.71,7.3,7.3,0,0,1,1.16,4.2v.66H698.6a5.82,5.82,0,0,0,.91,3.08,2.83,2.83,0,0,0,2.53,1.27,9,9,0,0,0,3.15-1.22l.64,1.33a5.15,5.15,0,0,1-3.81,1.4A5.23,5.23,0,0,1,699.06,525.81Zm5.15-6.46q-.22-3.62-2.54-3.62-2.62,0-3,3.62Z"/><path class="cls-3" d="M731.51,515.94a7.33,7.33,0,0,1,1.28,4.49,6.91,6.91,0,0,1-1.39,4.48,4.58,4.58,0,0,1-3.76,1.71,5.07,5.07,0,0,1-2.26-.48,4.22,4.22,0,0,1-1.6-1.33,7.41,7.41,0,0,1-1.24-4.45,6.89,6.89,0,0,1,1.36-4.44,4.64,4.64,0,0,1,3.84-1.7A4.39,4.39,0,0,1,731.51,515.94Zm-3.87,9.18a2.77,2.77,0,0,0,2.79-2,6.56,6.56,0,0,0,.4-2.25,14.57,14.57,0,0,0-.09-1.8,4.75,4.75,0,0,0-.93-2.38,2.61,2.61,0,0,0-2.17-.92,2.73,2.73,0,0,0-2.73,2.08,7.11,7.11,0,0,0-.39,2.34,8.22,8.22,0,0,0,.68,3.57A2.47,2.47,0,0,0,727.64,525.13Z"/><path class="cls-3" d="M741.93,514.22q3.66,0,3.66,4.64v7.5h-2V519.1a8.57,8.57,0,0,0-.13-1.78,2.37,2.37,0,0,0-.39-.88,2.13,2.13,0,0,0-1.79-.71,3.2,3.2,0,0,0-2.13.73,2.4,2.4,0,0,0-.87,1.93v8h-2V514.58h1.79l.11,1.28A4.19,4.19,0,0,1,741.93,514.22Z"/><path class="cls-3" d="M770.94,520.86a3.51,3.51,0,0,1,.7,2.36,3,3,0,0,1-1.18,2.48,4.59,4.59,0,0,1-2.95.93,9.55,9.55,0,0,1-2.46-.32,5.21,5.21,0,0,1-1.76-.75l.48-1.41a6,6,0,0,0,1.43.56,7.57,7.57,0,0,0,2.12.29,3.13,3.13,0,0,0,1.83-.48,1.48,1.48,0,0,0,.68-1.27,2.05,2.05,0,0,0-.34-1.25,2.24,2.24,0,0,0-1.3-.69l-2-.48a3.82,3.82,0,0,1-2.3-1.25,3.5,3.5,0,0,1-.57-2,3.2,3.2,0,0,1,1-2.26,3.9,3.9,0,0,1,2.9-1.05h.14a7.62,7.62,0,0,1,3.64.8l-.43,1.38a8.08,8.08,0,0,0-3.18-.67,2.67,2.67,0,0,0-1.64.5,1.49,1.49,0,0,0-.64,1.23,1.65,1.65,0,0,0,.32,1.11,2.35,2.35,0,0,0,1.22.59l2.05.5A4.18,4.18,0,0,1,770.94,520.86Z"/><path class="cls-3" d="M785,522.54q0,4.09-4.55,4.09t-4.55-4.09v-8h2v8.13a2.4,2.4,0,0,0,.62,1.84,3.66,3.66,0,0,0,4,0,2.4,2.4,0,0,0,.62-1.84v-8.13h2Z"/><path class="cls-3" d="M797.84,525.59a4.56,4.56,0,0,1-3.21,1,5.69,5.69,0,0,1-2.43-.51,5,5,0,0,1-1.79-1.37,6.67,6.67,0,0,1-1.47-4.35,6.92,6.92,0,0,1,.67-3,5.58,5.58,0,0,1,2-2.27,5.72,5.72,0,0,1,3.23-.87,4.14,4.14,0,0,1,3,1l-.49,1.31a4.91,4.91,0,0,0-2.79-.83,3.13,3.13,0,0,0-2.58,1.33,5.39,5.39,0,0,0-1,3.39,5.3,5.3,0,0,0,1,3.37,3.18,3.18,0,0,0,2.62,1.31,4.73,4.73,0,0,0,2.81-.86Z"/><path class="cls-3" d="M811,525.59a4.56,4.56,0,0,1-3.21,1,5.68,5.68,0,0,1-2.43-.51,5,5,0,0,1-1.79-1.37,6.67,6.67,0,0,1-1.47-4.35,6.91,6.91,0,0,1,.67-3,5.57,5.57,0,0,1,2-2.27,5.72,5.72,0,0,1,3.23-.87,4.14,4.14,0,0,1,3,1l-.49,1.31a4.91,4.91,0,0,0-2.79-.83,3.13,3.13,0,0,0-2.58,1.33,5.39,5.39,0,0,0-1,3.39,5.3,5.3,0,0,0,1,3.37,3.18,3.18,0,0,0,2.62,1.31,4.73,4.73,0,0,0,2.81-.86Z"/><path class="cls-3" d="M817.87,525.81A4.92,4.92,0,0,1,816,523.6a7.88,7.88,0,0,1-.6-3.14,8.44,8.44,0,0,1,.55-3.14,5.2,5.2,0,0,1,1.65-2.25,3.86,3.86,0,0,1,2.42-.85,4.1,4.1,0,0,1,3.65,1.71,7.3,7.3,0,0,1,1.16,4.2v.66h-7.47a5.82,5.82,0,0,0,.91,3.08,2.84,2.84,0,0,0,2.53,1.27A9,9,0,0,0,824,523.9l.64,1.33a5.15,5.15,0,0,1-3.81,1.4A5.23,5.23,0,0,1,817.87,525.81Zm5.15-6.46q-.22-3.62-2.54-3.62-2.62,0-3,3.62Z"/><path class="cls-3" d="M836.95,520.86a3.51,3.51,0,0,1,.7,2.36,3,3,0,0,1-1.18,2.48,4.59,4.59,0,0,1-2.95.93,9.55,9.55,0,0,1-2.46-.32,5.22,5.22,0,0,1-1.76-.75l.48-1.41a6.06,6.06,0,0,0,1.43.56,7.57,7.57,0,0,0,2.12.29,3.13,3.13,0,0,0,1.83-.48,1.48,1.48,0,0,0,.68-1.27,2.07,2.07,0,0,0-.34-1.25,2.25,2.25,0,0,0-1.31-.69l-2-.48a3.82,3.82,0,0,1-2.3-1.25,3.5,3.5,0,0,1-.57-2,3.19,3.19,0,0,1,1-2.26,3.9,3.9,0,0,1,2.89-1.05h.14a7.62,7.62,0,0,1,3.64.8l-.43,1.38a8.08,8.08,0,0,0-3.18-.67,2.67,2.67,0,0,0-1.64.5,1.49,1.49,0,0,0-.64,1.23,1.65,1.65,0,0,0,.32,1.11,2.35,2.35,0,0,0,1.22.59l2.05.5A4.18,4.18,0,0,1,836.95,520.86Z"/><path class="cls-3" d="M850.15,520.86a3.51,3.51,0,0,1,.7,2.36,3,3,0,0,1-1.18,2.48,4.59,4.59,0,0,1-2.95.93,9.55,9.55,0,0,1-2.46-.32,5.21,5.21,0,0,1-1.76-.75l.48-1.41a6,6,0,0,0,1.43.56,7.57,7.57,0,0,0,2.12.29,3.13,3.13,0,0,0,1.83-.48,1.48,1.48,0,0,0,.68-1.27,2.05,2.05,0,0,0-.34-1.25,2.24,2.24,0,0,0-1.3-.69l-2-.48a3.82,3.82,0,0,1-2.3-1.25,3.5,3.5,0,0,1-.57-2,3.2,3.2,0,0,1,1-2.26,3.9,3.9,0,0,1,2.9-1.05h.14a7.62,7.62,0,0,1,3.64.8l-.43,1.38a8.08,8.08,0,0,0-3.18-.67,2.67,2.67,0,0,0-1.64.5,1.49,1.49,0,0,0-.64,1.23,1.65,1.65,0,0,0,.32,1.11,2.35,2.35,0,0,0,1.22.59l2.05.5A4.18,4.18,0,0,1,850.15,520.86Z"/><path class="cls-3" d="M267.48,564.58a2.35,2.35,0,0,0,.86,1.95,3.89,3.89,0,0,0,2.25.77v1.45a3.88,3.88,0,0,0-2.24.78,2.35,2.35,0,0,0-.87,1.95V574a4.49,4.49,0,0,1-.87,3.08,3.84,3.84,0,0,1-2.95,1h-2.49v-1.45h2.46a1.25,1.25,0,0,0,1.36-1.07,8,8,0,0,0,.11-1.5v-2.59a3,3,0,0,1,.67-2.2,5.8,5.8,0,0,1,2-1.15,4.42,4.42,0,0,1-2.17-1.43,3.66,3.66,0,0,1-.46-1.93v-2.59a5.3,5.3,0,0,0-.16-1.69,2.49,2.49,0,0,0-.32-.52,1.23,1.23,0,0,0-1-.36h-2.46V558h2.49a3.84,3.84,0,0,1,2.95,1,4.49,4.49,0,0,1,.88,3.08Z"/><path class="cls-3" d="M276.92,579.81l.55-6.52h2.76l-2,6.52Z"/><path class="cls-3" d="M263.38,625.81a4.92,4.92,0,0,1-1.83-2.21,7.88,7.88,0,0,1-.6-3.14,8.44,8.44,0,0,1,.55-3.14,5.2,5.2,0,0,1,1.65-2.25,3.86,3.86,0,0,1,2.42-.85,4.1,4.1,0,0,1,3.65,1.71,7.3,7.3,0,0,1,1.16,4.2v.66h-7.47a5.82,5.82,0,0,0,.91,3.08,2.84,2.84,0,0,0,2.53,1.27,9,9,0,0,0,3.15-1.22l.64,1.33a5.15,5.15,0,0,1-3.81,1.4A5.23,5.23,0,0,1,263.38,625.81Zm5.15-6.46q-.22-3.62-2.54-3.62-2.62,0-3,3.62Z"/><path class="cls-3" d="M278,626.36h-2V614.58h1.6l.16,2.18a4.88,4.88,0,0,1,1.89-1.89,5.41,5.41,0,0,1,2.65-.64h.95V616H282.1a4.42,4.42,0,0,0-3,.94,3.53,3.53,0,0,0-1.1,2.83Z"/><path class="cls-3" d="M291.23,626.36h-2V614.58h1.6l.16,2.18a4.89,4.89,0,0,1,1.89-1.89,5.41,5.41,0,0,1,2.65-.64h.95V616H295.3a4.42,4.42,0,0,0-3,.94,3.53,3.53,0,0,0-1.1,2.83Z"/><path class="cls-3" d="M309,615.94a7.33,7.33,0,0,1,1.28,4.49,6.91,6.91,0,0,1-1.39,4.48,4.58,4.58,0,0,1-3.76,1.71,5.07,5.07,0,0,1-2.26-.48,4.22,4.22,0,0,1-1.6-1.33,7.41,7.41,0,0,1-1.24-4.45,6.89,6.89,0,0,1,1.36-4.44,4.64,4.64,0,0,1,3.84-1.7A4.39,4.39,0,0,1,309,615.94Zm-3.87,9.18a2.77,2.77,0,0,0,2.79-2,6.56,6.56,0,0,0,.4-2.25,14.57,14.57,0,0,0-.09-1.8,4.75,4.75,0,0,0-.93-2.38,2.61,2.61,0,0,0-2.17-.92,2.73,2.73,0,0,0-2.73,2.08,7.11,7.11,0,0,0-.39,2.34,8.22,8.22,0,0,0,.68,3.57A2.47,2.47,0,0,0,305.17,625.13Z"/><path class="cls-3" d="M317.63,626.36h-2V614.58h1.6l.16,2.18a4.89,4.89,0,0,1,1.89-1.89,5.41,5.41,0,0,1,2.65-.64h.95V616H321.7a4.42,4.42,0,0,0-3,.94,3.53,3.53,0,0,0-1.1,2.83Z"/><path class="cls-3" d="M332.39,628a16.12,16.12,0,0,1-3.28-9.92,16.69,16.69,0,0,1,3.24-10h1.89A18.31,18.31,0,0,0,331.2,618a16.62,16.62,0,0,0,.8,5.28,22,22,0,0,0,2.27,4.75Z"/><path class="cls-3" d="M342.87,628.73a3.45,3.45,0,0,0,1.39-.18,1.52,1.52,0,0,0,.5-.37,5.35,5.35,0,0,0,.38-2.57v-9.52h-4.2v-1.5h6.16V625a9.82,9.82,0,0,1-.43,3.64,2.25,2.25,0,0,1-1.18,1.18,7.24,7.24,0,0,1-2.6.41h-2.83v-1.5Zm1.92-17.25v-1.06a.83.83,0,0,1,.43-.68,1.42,1.42,0,0,1,1.73,0,.83.83,0,0,1,.43.68v1.06a.83.83,0,0,1-.43.68,1.42,1.42,0,0,1-1.73,0A.83.83,0,0,1,344.79,611.47Z"/><path class="cls-3" d="M361.15,616.2v-1.62h2v16.31l-1.93.21,0-6.35a5.16,5.16,0,0,1-1.55,1.39,4.25,4.25,0,0,1-2.12.49,4.71,4.71,0,0,1-2.22-.5,4.06,4.06,0,0,1-1.54-1.4,8,8,0,0,1-1.17-4.43,7.26,7.26,0,0,1,1.25-4.35,4.87,4.87,0,0,1,5.88-1.22A4.5,4.5,0,0,1,361.15,616.2Zm0,4.2q0-4.67-3.45-4.67-3.19,0-3.19,4.67,0,3.51,1.91,4.46a3.19,3.19,0,0,0,1.39.27,3.11,3.11,0,0,0,1.51-.37,2.72,2.72,0,0,0,1.07-1.05A6.52,6.52,0,0,0,361.15,620.4Z"/><path class="cls-3" d="M365.81,610.35h2.45l3.1,6.44,3.35-6.44H377l-4.3,7.82,4.38,8.2h-2.41l-3.44-6.74-3.51,6.74h-2.3l4.55-8.19Z"/><path class="cls-3" d="M381.32,626.36h-2v-16h2v6.83h6.18v-6.83h2v16h-2v-7.54h-6.18Z"/><path class="cls-3" d="M399.59,610.64a4.76,4.76,0,0,1,2.43,1.22,3.57,3.57,0,0,1,1,2.7,4,4,0,0,1-1,2.81,4.84,4.84,0,0,1-2.58,1.4,25,25,0,0,1,2.23,3.39q1,1.77,2.07,4.21h-2.33l-.36-.78-.37-.81-.34-.71-.39-.78-.38-.71q-.26-.5-.45-.8l-.57-.94q-.38-.63-1.09-1.61l-1.51,0H395v7.11h-2v-16h3.12A18.08,18.08,0,0,1,399.59,610.64Zm.32,6.2a2.55,2.55,0,0,0,1-2.27,2.48,2.48,0,0,0-.31-1.27q-.82-1.39-3.52-1.39h-2v5.6h2.08A5,5,0,0,0,399.91,616.84Z"/><path class="cls-3" d="M408.94,629.81l.55-6.52h2.76l-2,6.52Z"/><path class="cls-3" d="M440.88,620.86a3.51,3.51,0,0,1,.7,2.36,3,3,0,0,1-1.18,2.48,4.59,4.59,0,0,1-2.95.93,9.55,9.55,0,0,1-2.46-.32,5.22,5.22,0,0,1-1.76-.75l.48-1.41a6.06,6.06,0,0,0,1.43.56,7.57,7.57,0,0,0,2.12.29,3.13,3.13,0,0,0,1.83-.48,1.48,1.48,0,0,0,.68-1.27,2.07,2.07,0,0,0-.34-1.25,2.25,2.25,0,0,0-1.31-.69l-2-.48a3.82,3.82,0,0,1-2.3-1.25,3.5,3.5,0,0,1-.57-2,3.19,3.19,0,0,1,1-2.26,3.9,3.9,0,0,1,2.89-1.05h.14a7.62,7.62,0,0,1,3.64.8l-.43,1.38a8.08,8.08,0,0,0-3.18-.67,2.67,2.67,0,0,0-1.64.5,1.49,1.49,0,0,0-.64,1.23,1.65,1.65,0,0,0,.32,1.11,2.35,2.35,0,0,0,1.22.59l2.05.5A4.18,4.18,0,0,1,440.88,620.86Z"/><path class="cls-3" d="M450.08,616.08v5.53a9.39,9.39,0,0,0,.11,1.63,2,2,0,0,0,.45,1,1.67,1.67,0,0,0,.88.51,6.54,6.54,0,0,0,1.46.13h2.16l-.11,1.5h-2q-3,0-4-1.12a4.06,4.06,0,0,1-.81-2.35,17.27,17.27,0,0,1-.08-1.77v-5H444.8l.21-1.5h3.12v-4.06l2-.58v4.64h5v1.5Z"/><path class="cls-3" d="M466.14,618.24q0-2.53-2.14-2.53a11.91,11.91,0,0,0-2.23.24,9.32,9.32,0,0,0-1.71.45L459.6,615a13.24,13.24,0,0,1,4.18-.74,5.09,5.09,0,0,1,3.14.89,3.23,3.23,0,0,1,1.18,2.75v8.5h-1.62l-.26-1.37a5.51,5.51,0,0,1-1.77,1.17,5.3,5.3,0,0,1-2.11.47,3.55,3.55,0,0,1-2.48-.9,3.25,3.25,0,0,1-1-2.54,2.59,2.59,0,0,1,1.29-2.4,5.63,5.63,0,0,1,1.85-.74q1-.2,2.56-.39l1.57-.18Zm0,5.49v-3l-1.6.23a12.94,12.94,0,0,0-2.32.47,1.9,1.9,0,0,0-1.44,1.84,1.93,1.93,0,0,0,.52,1.42,1.89,1.89,0,0,0,1.42.53A4.63,4.63,0,0,0,466.14,623.73Z"/><path class="cls-3" d="M476.49,616.08v5.53a9.39,9.39,0,0,0,.11,1.63,2,2,0,0,0,.45,1,1.67,1.67,0,0,0,.88.51,6.54,6.54,0,0,0,1.46.13h2.16l-.11,1.5h-2q-3,0-4-1.12a4.06,4.06,0,0,1-.81-2.35,17.27,17.27,0,0,1-.08-1.77v-5H471.2l.21-1.5h3.12v-4.06l2-.58v4.64h5v1.5Z"/><path class="cls-3" d="M494.59,622.54q0,4.09-4.55,4.09t-4.55-4.09v-8h2v8.13a2.4,2.4,0,0,0,.62,1.84,3.66,3.66,0,0,0,4,0,2.4,2.4,0,0,0,.62-1.84v-8.13h2Z"/><path class="cls-3" d="M506.89,620.86a3.51,3.51,0,0,1,.7,2.36,3,3,0,0,1-1.18,2.48,4.59,4.59,0,0,1-2.95.93,9.55,9.55,0,0,1-2.46-.32,5.21,5.21,0,0,1-1.76-.75l.48-1.41a6,6,0,0,0,1.43.56,7.57,7.57,0,0,0,2.12.29,3.13,3.13,0,0,0,1.83-.48,1.48,1.48,0,0,0,.68-1.27,2.05,2.05,0,0,0-.34-1.25,2.24,2.24,0,0,0-1.3-.69l-2-.48a3.82,3.82,0,0,1-2.3-1.25,3.5,3.5,0,0,1-.57-2,3.2,3.2,0,0,1,1-2.26,3.9,3.9,0,0,1,2.9-1.05h.14a7.62,7.62,0,0,1,3.64.8l-.43,1.38a8.08,8.08,0,0,0-3.18-.67,2.67,2.67,0,0,0-1.64.5,1.49,1.49,0,0,0-.64,1.23,1.65,1.65,0,0,0,.32,1.11,2.35,2.35,0,0,0,1.22.59l2.05.5A4.18,4.18,0,0,1,506.89,620.86Z"/><path class="cls-3" d="M514.56,629.81l.55-6.52h2.76l-2,6.52Z"/><path class="cls-3" d="M540.63,625.81a4.93,4.93,0,0,1-1.83-2.21,7.92,7.92,0,0,1-.6-3.14,8.44,8.44,0,0,1,.55-3.14,5.21,5.21,0,0,1,1.65-2.25,3.87,3.87,0,0,1,2.42-.85,4.1,4.1,0,0,1,3.65,1.71,7.3,7.3,0,0,1,1.16,4.2v.66h-7.47a5.82,5.82,0,0,0,.91,3.08,2.83,2.83,0,0,0,2.53,1.27,9,9,0,0,0,3.15-1.22l.64,1.33a5.15,5.15,0,0,1-3.81,1.4A5.23,5.23,0,0,1,540.63,625.81Zm5.15-6.46q-.22-3.62-2.54-3.62-2.62,0-3,3.62Z"/><path class="cls-3" d="M555.27,626.36h-2V614.58h1.6l.16,2.18a4.89,4.89,0,0,1,1.89-1.89,5.41,5.41,0,0,1,2.65-.64h.95V616h-1.22a4.42,4.42,0,0,0-3,.94,3.53,3.53,0,0,0-1.1,2.83Z"/><path class="cls-3" d="M568.47,626.36h-2V614.58h1.6l.16,2.18a4.88,4.88,0,0,1,1.89-1.89,5.41,5.41,0,0,1,2.65-.64h.95V616h-1.22a4.42,4.42,0,0,0-3,.94,3.53,3.53,0,0,0-1.1,2.83Z"/><path class="cls-3" d="M586.28,615.94a7.34,7.34,0,0,1,1.28,4.49,6.91,6.91,0,0,1-1.39,4.48,4.58,4.58,0,0,1-3.76,1.71,5.07,5.07,0,0,1-2.26-.48,4.22,4.22,0,0,1-1.6-1.33,7.41,7.41,0,0,1-1.24-4.45,6.89,6.89,0,0,1,1.36-4.44,4.64,4.64,0,0,1,3.84-1.7A4.38,4.38,0,0,1,586.28,615.94Zm-3.87,9.18a2.77,2.77,0,0,0,2.79-2,6.56,6.56,0,0,0,.4-2.25,14.38,14.38,0,0,0-.09-1.8,4.75,4.75,0,0,0-.93-2.38,2.62,2.62,0,0,0-2.18-.92,2.73,2.73,0,0,0-2.73,2.08,7.11,7.11,0,0,0-.39,2.34,8.22,8.22,0,0,0,.68,3.57A2.47,2.47,0,0,0,582.42,625.13Z"/><path class="cls-3" d="M594.88,626.36h-2V614.58h1.6l.16,2.18a4.88,4.88,0,0,1,1.89-1.89,5.41,5.41,0,0,1,2.65-.64h.95V616h-1.22a4.42,4.42,0,0,0-3,.94,3.53,3.53,0,0,0-1.1,2.83Z"/><path class="cls-3" d="M614.37,610.35v1.57h-4.55v14.45h-2V611.91h-4.55v-1.57Z"/><path class="cls-3" d="M626.66,619.25v7.11h-2V619.5a5.27,5.27,0,0,0-.59-3,2.09,2.09,0,0,0-1.78-.78,3,3,0,0,0-2.09.83,2.44,2.44,0,0,0-.89,1.79v8h-2v-16.6l2-.21V616a4.41,4.41,0,0,1,3.68-1.78Q626.66,614.22,626.66,619.25Z"/><path class="cls-3" d="M634.48,626.36h-2V614.58h1.6l.16,2.18a4.89,4.89,0,0,1,1.89-1.89,5.41,5.41,0,0,1,2.65-.64h.95V616h-1.22a4.42,4.42,0,0,0-3,.94,3.53,3.53,0,0,0-1.1,2.83Z"/><path class="cls-3" d="M652.29,615.94a7.33,7.33,0,0,1,1.28,4.49,6.91,6.91,0,0,1-1.39,4.48,4.58,4.58,0,0,1-3.76,1.71,5.07,5.07,0,0,1-2.26-.48,4.22,4.22,0,0,1-1.6-1.33,7.41,7.41,0,0,1-1.24-4.45,6.89,6.89,0,0,1,1.36-4.44,4.64,4.64,0,0,1,3.84-1.7A4.39,4.39,0,0,1,652.29,615.94Zm-3.87,9.18a2.77,2.77,0,0,0,2.79-2,6.56,6.56,0,0,0,.4-2.25,14.57,14.57,0,0,0-.09-1.8,4.75,4.75,0,0,0-.93-2.38,2.61,2.61,0,0,0-2.17-.92,2.73,2.73,0,0,0-2.73,2.08,7.11,7.11,0,0,0-.39,2.34,8.22,8.22,0,0,0,.68,3.57A2.47,2.47,0,0,0,648.43,625.13Z"/><path class="cls-3" d="M659.61,626.36h-2l-2.3-11.79h2l1.41,9.1,2-9.1H663l1.92,9.07,1.24-9.07H668l-2.16,11.79h-2.06l-2-10.24Z"/><path class="cls-3" d="M675.92,614.22q3.66,0,3.66,4.64v7.5h-2V619.1a8.57,8.57,0,0,0-.13-1.78,2.37,2.37,0,0,0-.39-.88,2.13,2.13,0,0,0-1.79-.71,3.2,3.2,0,0,0-2.13.73,2.4,2.4,0,0,0-.87,1.93v8h-2V614.58h1.79l.11,1.28A4.19,4.19,0,0,1,675.92,614.22Z"/><path class="cls-3" d="M687,608a16.69,16.69,0,0,1,3.24,10,16.12,16.12,0,0,1-3.28,9.92H685a22,22,0,0,0,2.27-4.75,16.64,16.64,0,0,0,.8-5.28,18.31,18.31,0,0,0-3.05-9.93Z"/><path class="cls-3" d="M713.39,621.47a2.36,2.36,0,0,0-.87-1.95,3.88,3.88,0,0,0-2.24-.78V617.3a3.89,3.89,0,0,0,2.25-.77,2.35,2.35,0,0,0,.86-1.95v-2.5a4.49,4.49,0,0,1,.88-3.08,3.84,3.84,0,0,1,2.95-1h2.48v1.46h-2.45a1.33,1.33,0,0,0-1.09.46,3.74,3.74,0,0,0-.38,2.11v2.59a3,3,0,0,1-1,2.53,6.66,6.66,0,0,1-1.61.84,4.49,4.49,0,0,1,2.17,1.41,3.58,3.58,0,0,1,.47,1.94V624a3.9,3.9,0,0,0,.37,2.1,1.3,1.3,0,0,0,1.11.48h2.45V628h-2.48a3.84,3.84,0,0,1-2.95-1,4.49,4.49,0,0,1-.87-3.08Z"/><path class="cls-3" d="M294.92,659.34H297l-7.62,19.43h-2.05Z"/><path class="cls-3" d="M308.13,659.34h2.12l-7.62,19.43h-2.05Z"/><path class="cls-3" d="M337.12,661.42l-.71,1.41a5,5,0,0,0-3.09-1.11,4.06,4.06,0,0,0-2.75.94q-2.13,1.81-2.13,5.67a9.68,9.68,0,0,0,.55,3.35,5.49,5.49,0,0,0,1.63,2.39,3.82,3.82,0,0,0,2.52.9,5.05,5.05,0,0,0,3.3-1.16l.7,1.51a6.25,6.25,0,0,1-4.24,1.31,5.77,5.77,0,0,1-3.46-1.08,6.82,6.82,0,0,1-2.29-3,10.2,10.2,0,0,1-.79-4,11.92,11.92,0,0,1,.5-3.67,7.79,7.79,0,0,1,1.38-2.61,6.21,6.21,0,0,1,2.08-1.64,5.85,5.85,0,0,1,2.59-.58A6.27,6.27,0,0,1,337.12,661.42Z"/><path class="cls-3" d="M348.65,665.94a7.34,7.34,0,0,1,1.28,4.49,6.91,6.91,0,0,1-1.39,4.48,4.58,4.58,0,0,1-3.76,1.71,5.07,5.07,0,0,1-2.26-.48,4.22,4.22,0,0,1-1.6-1.33,7.41,7.41,0,0,1-1.24-4.45,6.89,6.89,0,0,1,1.36-4.44,4.64,4.64,0,0,1,3.84-1.7A4.38,4.38,0,0,1,348.65,665.94Zm-3.87,9.18a2.77,2.77,0,0,0,2.79-2,6.56,6.56,0,0,0,.4-2.25,14.38,14.38,0,0,0-.09-1.8,4.75,4.75,0,0,0-.93-2.38,2.62,2.62,0,0,0-2.18-.92,2.73,2.73,0,0,0-2.73,2.08,7.11,7.11,0,0,0-.39,2.34,8.22,8.22,0,0,0,.68,3.57A2.47,2.47,0,0,0,344.78,675.13Z"/><path class="cls-3" d="M360.84,666.2v-6.44l2-.21v16.81h-2v-1.83a3.71,3.71,0,0,1-3.37,2.09,4,4,0,0,1-3.63-1.78,8.2,8.2,0,0,1-1.13-4.48,6.79,6.79,0,0,1,1.65-4.94,4.12,4.12,0,0,1,3.12-1.2,3.87,3.87,0,0,1,2.16.55A3.11,3.11,0,0,1,360.84,666.2Zm0,4.2q0-2.75-.82-3.71a2.88,2.88,0,0,0-2.32-1,2.59,2.59,0,0,0-2.7,2.06,9.66,9.66,0,0,0-.33,2.72q0,4.62,3,4.62T360.84,670.4Z"/><path class="cls-3" d="M369,675.81a4.92,4.92,0,0,1-1.83-2.21,7.88,7.88,0,0,1-.6-3.14,8.44,8.44,0,0,1,.55-3.14,5.2,5.2,0,0,1,1.65-2.25,3.86,3.86,0,0,1,2.42-.85,4.1,4.1,0,0,1,3.65,1.71,7.3,7.3,0,0,1,1.16,4.2v.66h-7.47a5.82,5.82,0,0,0,.91,3.08,2.84,2.84,0,0,0,2.53,1.27,9,9,0,0,0,3.15-1.22l.64,1.33a5.15,5.15,0,0,1-3.81,1.4A5.23,5.23,0,0,1,369,675.81Zm5.15-6.46q-.22-3.62-2.54-3.62-2.62,0-3,3.62Z"/><path class="cls-3" d="M397.28,666.08v5.53a9.39,9.39,0,0,0,.11,1.63,2,2,0,0,0,.45,1,1.67,1.67,0,0,0,.88.51,6.54,6.54,0,0,0,1.46.13h2.16l-.11,1.5h-2q-3,0-4-1.12a4.06,4.06,0,0,1-.81-2.35,17.27,17.27,0,0,1-.08-1.77v-5H392l.21-1.5h3.12v-4.06l2-.58v4.64h5v1.5Z"/><path class="cls-3" d="M414.66,665.94a7.33,7.33,0,0,1,1.28,4.49,6.91,6.91,0,0,1-1.39,4.48,4.58,4.58,0,0,1-3.76,1.71,5.07,5.07,0,0,1-2.26-.48,4.22,4.22,0,0,1-1.6-1.33,7.41,7.41,0,0,1-1.24-4.45,6.89,6.89,0,0,1,1.36-4.44,4.64,4.64,0,0,1,3.84-1.7A4.39,4.39,0,0,1,414.66,665.94Zm-3.87,9.18a2.77,2.77,0,0,0,2.79-2,6.56,6.56,0,0,0,.4-2.25,14.57,14.57,0,0,0-.09-1.8,4.75,4.75,0,0,0-.93-2.38,2.61,2.61,0,0,0-2.17-.92,2.73,2.73,0,0,0-2.73,2.08,7.11,7.11,0,0,0-.39,2.34,8.22,8.22,0,0,0,.68,3.57A2.47,2.47,0,0,0,410.79,675.13Z"/><path class="cls-3" d="M435,675.81a4.93,4.93,0,0,1-1.83-2.21,7.92,7.92,0,0,1-.6-3.14,8.44,8.44,0,0,1,.55-3.14,5.21,5.21,0,0,1,1.65-2.25,3.87,3.87,0,0,1,2.42-.85,4.1,4.1,0,0,1,3.65,1.71,7.3,7.3,0,0,1,1.16,4.2v.66h-7.47a5.82,5.82,0,0,0,.91,3.08,2.83,2.83,0,0,0,2.53,1.27,9,9,0,0,0,3.15-1.22l.64,1.33a5.15,5.15,0,0,1-3.81,1.4A5.23,5.23,0,0,1,435,675.81Zm5.15-6.46q-.22-3.62-2.54-3.62-2.62,0-3,3.62Z"/><path class="cls-3" d="M445.52,664.58h2.23l2.8,4.53,2.8-4.53h2l-3.62,5.71,3.75,6.07h-2.17l-2.88-4.7-3,4.7h-2.15l3.87-6Z"/><path class="cls-3" d="M461.42,675.81a4.93,4.93,0,0,1-1.83-2.21,7.92,7.92,0,0,1-.6-3.14,8.44,8.44,0,0,1,.55-3.14,5.21,5.21,0,0,1,1.65-2.25,3.87,3.87,0,0,1,2.42-.85,4.1,4.1,0,0,1,3.65,1.71,7.3,7.3,0,0,1,1.16,4.2v.66H461a5.82,5.82,0,0,0,.91,3.08,2.83,2.83,0,0,0,2.53,1.27,9,9,0,0,0,3.15-1.22l.64,1.33a5.15,5.15,0,0,1-3.81,1.4A5.23,5.23,0,0,1,461.42,675.81Zm5.15-6.46q-.22-3.62-2.54-3.62-2.62,0-3,3.62Z"/><path class="cls-3" d="M481,675.59a4.56,4.56,0,0,1-3.21,1,5.69,5.69,0,0,1-2.43-.51,5,5,0,0,1-1.79-1.37,6.67,6.67,0,0,1-1.47-4.35,6.92,6.92,0,0,1,.67-3,5.58,5.58,0,0,1,2-2.27,5.72,5.72,0,0,1,3.23-.87,4.14,4.14,0,0,1,3,1l-.49,1.31a4.91,4.91,0,0,0-2.79-.83,3.13,3.13,0,0,0-2.58,1.33,5.39,5.39,0,0,0-1,3.39,5.3,5.3,0,0,0,1,3.37,3.18,3.18,0,0,0,2.62,1.31,4.73,4.73,0,0,0,2.81-.86Z"/><path class="cls-3" d="M494.59,672.54q0,4.09-4.55,4.09t-4.55-4.09v-8h2v8.13a2.4,2.4,0,0,0,.62,1.84,3.66,3.66,0,0,0,4,0,2.4,2.4,0,0,0,.62-1.84v-8.13h2Z"/><path class="cls-3" d="M502.89,666.08v5.53a9.39,9.39,0,0,0,.11,1.63,2,2,0,0,0,.45,1,1.67,1.67,0,0,0,.88.51,6.54,6.54,0,0,0,1.46.13H508l-.11,1.5h-2q-3,0-4-1.12a4.06,4.06,0,0,1-.81-2.35,17.27,17.27,0,0,1-.08-1.77v-5h-3.33l.21-1.5h3.12v-4.06l2-.58v4.64h5v1.5Z"/><path class="cls-3" d="M514.23,675.81a4.93,4.93,0,0,1-1.83-2.21,7.92,7.92,0,0,1-.6-3.14,8.44,8.44,0,0,1,.55-3.14,5.21,5.21,0,0,1,1.65-2.25,3.87,3.87,0,0,1,2.42-.85,4.1,4.1,0,0,1,3.65,1.71,7.3,7.3,0,0,1,1.16,4.2v.66h-7.47a5.82,5.82,0,0,0,.91,3.08,2.83,2.83,0,0,0,2.53,1.27,9,9,0,0,0,3.15-1.22l.64,1.33a5.15,5.15,0,0,1-3.81,1.4A5.23,5.23,0,0,1,514.23,675.81Zm5.15-6.46q-.22-3.62-2.54-3.62-2.62,0-3,3.62Z"/><path class="cls-3" d="M540.79,676.36h-2l-2.3-11.79h2l1.41,9.1,2-9.1h2.33l1.92,9.07,1.24-9.07h1.85L547,676.36h-2.06l-2-10.24Z"/><path class="cls-3" d="M552.18,666.08v-1.5h5.32v10.28h3.37v1.5H551.8v-1.5h3.74v-8.78Zm3-4.61v-1.06a.83.83,0,0,1,.44-.68,1.41,1.41,0,0,1,1.73,0,.83.83,0,0,1,.44.68v1.06a.83.83,0,0,1-.44.68,1.41,1.41,0,0,1-1.73,0A.83.83,0,0,1,555.22,661.47Z"/><path class="cls-3" d="M568.9,666.08v5.53a9.19,9.19,0,0,0,.11,1.63,2,2,0,0,0,.45,1,1.65,1.65,0,0,0,.88.51,6.53,6.53,0,0,0,1.46.13H574l-.11,1.5h-2q-3,0-4-1.12a4.06,4.06,0,0,1-.81-2.35,17.56,17.56,0,0,1-.08-1.77v-5h-3.33l.21-1.5h3.12v-4.06l2-.58v4.64h5v1.5Z"/><path class="cls-3" d="M587.06,669.25v7.11h-2V669.5a5.27,5.27,0,0,0-.59-3,2.09,2.09,0,0,0-1.78-.78,3,3,0,0,0-2.09.83,2.44,2.44,0,0,0-.89,1.79v8h-2v-16.6l2-.21V666a4.41,4.41,0,0,1,3.68-1.78Q587.06,664.22,587.06,669.25Z"/><path class="cls-3" d="M608.08,676.36h-2V664.58h1.6l.16,2.18a4.89,4.89,0,0,1,1.89-1.89,5.41,5.41,0,0,1,2.65-.64h.95V666h-1.22a4.42,4.42,0,0,0-3,.94,3.53,3.53,0,0,0-1.1,2.83Z"/><path class="cls-3" d="M619.84,675.81A4.93,4.93,0,0,1,618,673.6a7.92,7.92,0,0,1-.6-3.14,8.44,8.44,0,0,1,.55-3.14,5.21,5.21,0,0,1,1.65-2.25,3.87,3.87,0,0,1,2.42-.85,4.1,4.1,0,0,1,3.65,1.71,7.3,7.3,0,0,1,1.16,4.2v.66h-7.47a5.82,5.82,0,0,0,.91,3.08,2.83,2.83,0,0,0,2.53,1.27A9,9,0,0,0,626,673.9l.64,1.33a5.15,5.15,0,0,1-3.81,1.4A5.23,5.23,0,0,1,619.84,675.81Zm5.15-6.46q-.22-3.62-2.54-3.62-2.62,0-3,3.62Z"/><path class="cls-3" d="M638.91,670.86a3.51,3.51,0,0,1,.7,2.36,3,3,0,0,1-1.18,2.48,4.59,4.59,0,0,1-2.95.93,9.55,9.55,0,0,1-2.46-.32,5.21,5.21,0,0,1-1.76-.75l.48-1.41a6,6,0,0,0,1.43.56,7.57,7.57,0,0,0,2.12.29,3.13,3.13,0,0,0,1.83-.48,1.48,1.48,0,0,0,.68-1.27,2.05,2.05,0,0,0-.34-1.25,2.24,2.24,0,0,0-1.3-.69l-2-.48a3.82,3.82,0,0,1-2.3-1.25,3.5,3.5,0,0,1-.57-2,3.2,3.2,0,0,1,1-2.26,3.9,3.9,0,0,1,2.9-1.05h.14a7.62,7.62,0,0,1,3.64.8l-.43,1.38a8.08,8.08,0,0,0-3.18-.67,2.67,2.67,0,0,0-1.64.5,1.49,1.49,0,0,0-.64,1.23,1.65,1.65,0,0,0,.32,1.11,2.35,2.35,0,0,0,1.22.59l2.05.5A4.18,4.18,0,0,1,638.91,670.86Z"/><path class="cls-3" d="M648.88,676.63a3.87,3.87,0,0,1-2-.53,3.64,3.64,0,0,1-1.34-1.35v6.13l-2,.21V664.58h2v1.62a4.16,4.16,0,0,1,1.38-1.43,3.54,3.54,0,0,1,1.94-.55,4.27,4.27,0,0,1,4.14,2.41,7.94,7.94,0,0,1,.77,3.63,7.27,7.27,0,0,1-1.62,5.11A4.19,4.19,0,0,1,648.88,676.63Zm-3.38-6.23q0,4.73,3.31,4.73,3,0,3-4.73a6.14,6.14,0,0,0-.8-3.65,2.65,2.65,0,0,0-2.21-1q-2.75,0-3.18,3.18A10.44,10.44,0,0,0,645.49,670.4Z"/><path class="cls-3" d="M665.5,665.94a7.34,7.34,0,0,1,1.28,4.49,6.91,6.91,0,0,1-1.39,4.48,4.58,4.58,0,0,1-3.76,1.71,5.07,5.07,0,0,1-2.26-.48,4.22,4.22,0,0,1-1.6-1.33,7.41,7.41,0,0,1-1.24-4.45,6.89,6.89,0,0,1,1.36-4.44,4.64,4.64,0,0,1,3.84-1.7A4.38,4.38,0,0,1,665.5,665.94Zm-3.87,9.18a2.77,2.77,0,0,0,2.79-2,6.56,6.56,0,0,0,.4-2.25,14.38,14.38,0,0,0-.09-1.8,4.75,4.75,0,0,0-.93-2.38,2.62,2.62,0,0,0-2.18-.92,2.73,2.73,0,0,0-2.73,2.08,7.11,7.11,0,0,0-.39,2.34,8.22,8.22,0,0,0,.68,3.57A2.47,2.47,0,0,0,661.63,675.13Z"/><path class="cls-3" d="M675.92,664.22q3.66,0,3.66,4.64v7.5h-2V669.1a8.57,8.57,0,0,0-.13-1.78,2.37,2.37,0,0,0-.39-.88,2.13,2.13,0,0,0-1.79-.71,3.2,3.2,0,0,0-2.13.73,2.4,2.4,0,0,0-.87,1.93v8h-2V664.58h1.79l.11,1.28A4.19,4.19,0,0,1,675.92,664.22Z"/><path class="cls-3" d="M691.72,670.86a3.51,3.51,0,0,1,.7,2.36,3,3,0,0,1-1.18,2.48,4.59,4.59,0,0,1-2.95.93,9.55,9.55,0,0,1-2.46-.32,5.21,5.21,0,0,1-1.76-.75l.48-1.41a6,6,0,0,0,1.43.56,7.57,7.57,0,0,0,2.12.29,3.13,3.13,0,0,0,1.83-.48,1.48,1.48,0,0,0,.68-1.27,2.05,2.05,0,0,0-.34-1.25,2.24,2.24,0,0,0-1.3-.69l-2-.48a3.82,3.82,0,0,1-2.3-1.25,3.5,3.5,0,0,1-.57-2,3.2,3.2,0,0,1,1-2.26,3.9,3.9,0,0,1,2.9-1.05h.14a7.62,7.62,0,0,1,3.64.8l-.43,1.38a8.08,8.08,0,0,0-3.18-.67,2.67,2.67,0,0,0-1.64.5,1.49,1.49,0,0,0-.64,1.23,1.65,1.65,0,0,0,.32,1.11,2.35,2.35,0,0,0,1.22.59l2.05.5A4.18,4.18,0,0,1,691.72,670.86Z"/><path class="cls-3" d="M699.06,675.81a4.93,4.93,0,0,1-1.83-2.21,7.92,7.92,0,0,1-.6-3.14,8.44,8.44,0,0,1,.55-3.14,5.21,5.21,0,0,1,1.65-2.25,3.87,3.87,0,0,1,2.42-.85,4.1,4.1,0,0,1,3.65,1.71,7.3,7.3,0,0,1,1.16,4.2v.66H698.6a5.82,5.82,0,0,0,.91,3.08,2.83,2.83,0,0,0,2.53,1.27,9,9,0,0,0,3.15-1.22l.64,1.33a5.15,5.15,0,0,1-3.81,1.4A5.23,5.23,0,0,1,699.06,675.81Zm5.15-6.46q-.22-3.62-2.54-3.62-2.62,0-3,3.62Z"/><path class="cls-3" d="M731.51,665.94a7.33,7.33,0,0,1,1.28,4.49,6.91,6.91,0,0,1-1.39,4.48,4.58,4.58,0,0,1-3.76,1.71,5.07,5.07,0,0,1-2.26-.48,4.22,4.22,0,0,1-1.6-1.33,7.41,7.41,0,0,1-1.24-4.45,6.89,6.89,0,0,1,1.36-4.44,4.64,4.64,0,0,1,3.84-1.7A4.39,4.39,0,0,1,731.51,665.94Zm-3.87,9.18a2.77,2.77,0,0,0,2.79-2,6.56,6.56,0,0,0,.4-2.25,14.57,14.57,0,0,0-.09-1.8,4.75,4.75,0,0,0-.93-2.38,2.61,2.61,0,0,0-2.17-.92,2.73,2.73,0,0,0-2.73,2.08,7.11,7.11,0,0,0-.39,2.34,8.22,8.22,0,0,0,.68,3.57A2.47,2.47,0,0,0,727.64,675.13Z"/><path class="cls-3" d="M741.93,664.22q3.66,0,3.66,4.64v7.5h-2V669.1a8.57,8.57,0,0,0-.13-1.78,2.37,2.37,0,0,0-.39-.88,2.13,2.13,0,0,0-1.79-.71,3.2,3.2,0,0,0-2.13.73,2.4,2.4,0,0,0-.87,1.93v8h-2V664.58h1.79l.11,1.28A4.19,4.19,0,0,1,741.93,664.22Z"/><path class="cls-3" d="M767.92,676.36h-2V666.08h-3.08v-1.5H766a12.76,12.76,0,0,1,.17-2.74,3.45,3.45,0,0,1,.88-1.6q1-.9,3.79-.9H772l-.11,1.5h-1.07a8.84,8.84,0,0,0-1.31.08,2.13,2.13,0,0,0-.86.32q-.68.43-.68,1.91v1.43h4v1.5h-4Z"/><path class="cls-3" d="M783,668.24q0-2.53-2.14-2.53a11.91,11.91,0,0,0-2.23.24,9.32,9.32,0,0,0-1.71.45l-.46-1.44a13.24,13.24,0,0,1,4.18-.74,5.09,5.09,0,0,1,3.14.89,3.23,3.23,0,0,1,1.18,2.75v8.5h-1.62l-.26-1.37a5.51,5.51,0,0,1-1.77,1.17,5.3,5.3,0,0,1-2.11.47,3.55,3.55,0,0,1-2.48-.9,3.25,3.25,0,0,1-1-2.54,2.59,2.59,0,0,1,1.29-2.4,5.63,5.63,0,0,1,1.85-.74q1-.2,2.56-.39l1.57-.18Zm0,5.49v-3l-1.6.23a12.94,12.94,0,0,0-2.32.47,1.9,1.9,0,0,0-1.44,1.84,1.93,1.93,0,0,0,.52,1.42,1.89,1.89,0,0,0,1.42.53A4.63,4.63,0,0,0,783,673.73Z"/><path class="cls-3" d="M789.82,666.08v-1.5h5.32v10.28h3.37v1.5h-9.07v-1.5h3.74v-8.78Zm3-4.61v-1.06a.83.83,0,0,1,.44-.68,1.41,1.41,0,0,1,1.73,0,.83.83,0,0,1,.44.68v1.06a.83.83,0,0,1-.44.68,1.41,1.41,0,0,1-1.73,0A.83.83,0,0,1,792.86,661.47Z"/><path class="cls-3" d="M811.44,676.36h-1.56a7.38,7.38,0,0,1-3-.43,2.7,2.7,0,0,1-.82-.57q-.8-.83-.83-3.65V661.05h-3.52v-1.5h5.48v12.06a5.15,5.15,0,0,0,.39,2.62,1.44,1.44,0,0,0,1,.55,10.17,10.17,0,0,0,1.2.07h1.73Z"/><path class="cls-3" d="M824.64,672.54q0,4.09-4.55,4.09t-4.55-4.09v-8h2v8.13a2.4,2.4,0,0,0,.62,1.84,3.66,3.66,0,0,0,4,0,2.4,2.4,0,0,0,.62-1.84v-8.13h2Z"/><path class="cls-3" d="M832.52,676.36h-2V664.58h1.6l.16,2.18a4.88,4.88,0,0,1,1.89-1.89,5.41,5.41,0,0,1,2.65-.64h.95V666h-1.22a4.42,4.42,0,0,0-3,.94,3.53,3.53,0,0,0-1.1,2.83Z"/><path class="cls-3" d="M844.28,675.81a4.92,4.92,0,0,1-1.83-2.21,7.88,7.88,0,0,1-.6-3.14,8.44,8.44,0,0,1,.55-3.14,5.2,5.2,0,0,1,1.65-2.25,3.86,3.86,0,0,1,2.42-.85,4.1,4.1,0,0,1,3.65,1.71,7.3,7.3,0,0,1,1.16,4.2v.66h-7.47a5.82,5.82,0,0,0,.91,3.08,2.84,2.84,0,0,0,2.53,1.27,9,9,0,0,0,3.15-1.22l.64,1.33a5.15,5.15,0,0,1-3.81,1.4A5.23,5.23,0,0,1,844.28,675.81Zm5.15-6.46q-.22-3.62-2.54-3.62-2.62,0-3,3.62Z"/><path class="cls-3" d="M267.48,714.58a2.35,2.35,0,0,0,.86,1.95,3.89,3.89,0,0,0,2.25.77v1.45a3.88,3.88,0,0,0-2.24.78,2.35,2.35,0,0,0-.87,1.95V724a4.49,4.49,0,0,1-.87,3.08,3.84,3.84,0,0,1-2.95,1h-2.49v-1.45h2.46a1.25,1.25,0,0,0,1.36-1.07,8,8,0,0,0,.11-1.5v-2.59a3,3,0,0,1,.67-2.2,5.8,5.8,0,0,1,2-1.15,4.42,4.42,0,0,1-2.17-1.43,3.66,3.66,0,0,1-.46-1.93v-2.59a5.3,5.3,0,0,0-.16-1.69,2.49,2.49,0,0,0-.32-.52,1.23,1.23,0,0,0-1-.36h-2.46V708h2.49a3.84,3.84,0,0,1,2.95,1,4.49,4.49,0,0,1,.88,3.08Z"/><path class="cls-3" d="M241.07,764.58a2.35,2.35,0,0,0,.86,1.95,3.89,3.89,0,0,0,2.25.77v1.45a3.88,3.88,0,0,0-2.24.78,2.35,2.35,0,0,0-.87,1.95V774a4.49,4.49,0,0,1-.87,3.08,3.84,3.84,0,0,1-2.95,1h-2.49v-1.45h2.46a1.25,1.25,0,0,0,1.36-1.07,8,8,0,0,0,.11-1.5v-2.59a3,3,0,0,1,.67-2.2,5.8,5.8,0,0,1,2-1.15,4.42,4.42,0,0,1-2.17-1.43,3.66,3.66,0,0,1-.46-1.93v-2.59a5.3,5.3,0,0,0-.16-1.69,2.49,2.49,0,0,0-.32-.52,1.23,1.23,0,0,0-1-.36h-2.46V758h2.49a3.84,3.84,0,0,1,2.95,1,4.49,4.49,0,0,1,.88,3.08Z"/><path class="cls-3" d="M251.3,758a16.69,16.69,0,0,1,3.24,10,16.12,16.12,0,0,1-3.28,9.92h-1.89a22,22,0,0,0,2.27-4.75,16.64,16.64,0,0,0,.8-5.28A18.31,18.31,0,0,0,249.4,758Z"/><path class="cls-3" d="M263.4,779.72l.82-6.43h2.92l-1.8,6.43Zm4-12.36h-3.21v-3.23h3.21Z"/><path class="cls-4" d="M919.91,522.65V504.82l1.45-.13v6.47a.46.46,0,0,1,0,.11.73.73,0,0,0,0,.13l0,.35a5.21,5.21,0,0,1,4.5-2.18q4.18,0,4.18,5.05v8h-1.44V514.9a5.65,5.65,0,0,0-.67-3.13,2.66,2.66,0,0,0-2.36-1,4.34,4.34,0,0,0-2.79.88,3.68,3.68,0,0,0-1.37,2.28q0,.47,0,1.39v7.29Z"/><path class="cls-4" d="M937.77,522.93a4.38,4.38,0,0,1-2.91-.91,3.22,3.22,0,0,1-1.09-2.61,3.42,3.42,0,0,1,.43-1.75,3.26,3.26,0,0,1,1.26-1.21,7.44,7.44,0,0,1,1.89-.72,15.42,15.42,0,0,1,2.47-.36l2.23-.15v-1.43a3.21,3.21,0,0,0-.67-2.22,2.79,2.79,0,0,0-2.16-.74,7.78,7.78,0,0,0-3.81,1l-.22-.51q-.17-.39-.24-.6a6.78,6.78,0,0,1,1.9-.79,8.79,8.79,0,0,1,2.3-.32,4.62,4.62,0,0,1,3.32,1,4.85,4.85,0,0,1,1,3.51v8.58h-1.14q-.06-.27-.17-1.07t-.11-.82A4.91,4.91,0,0,1,937.77,522.93Zm0-1.16a4.29,4.29,0,0,0,2.67-.88,4.14,4.14,0,0,0,1.53-2.46v-2.19l-1.7.14a10,10,0,0,0-4,.94,2.3,2.3,0,0,0-1.11,2.11,2.15,2.15,0,0,0,.71,1.76A2.86,2.86,0,0,0,937.81,521.77Z"/><path class="cls-4" d="M947.91,522.65V509.8h1.27l.2,2a4.81,4.81,0,0,1,1.86-1.62,5.48,5.48,0,0,1,2.51-.59,4.06,4.06,0,0,1,3.26,1.22,5.93,5.93,0,0,1,1,3.89v8h-1.46V514a3.87,3.87,0,0,0-.73-2.46,2.81,2.81,0,0,0-2.19-.75,4.45,4.45,0,0,0-2.85.88,3.77,3.77,0,0,0-1.39,2.27q0,.55,0,1.15v7.54Z"/><path class="cls-4" d="M967.23,522.92a4.85,4.85,0,0,1-4-1.78,7.64,7.64,0,0,1-1.44-4.92,7.43,7.43,0,0,1,1.48-4.8,4.77,4.77,0,0,1,3.91-1.85,6,6,0,0,1,2.39.52,3.73,3.73,0,0,1,1.82,1.61v-6.87l1.41-.13v18h-1.21l-.21-1.93a4.28,4.28,0,0,1-1.81,1.65A5.28,5.28,0,0,1,967.23,522.92Zm0-1.15a4.32,4.32,0,0,0,1.91-.4,3.29,3.29,0,0,0,1.31-1.12,5.27,5.27,0,0,0,.73-1.67,8.48,8.48,0,0,0,.24-2.09q0-5.73-4.22-5.73a3.25,3.25,0,0,0-1.76.47,3.4,3.4,0,0,0-1.2,1.28,6.63,6.63,0,0,0-.65,1.75,9.08,9.08,0,0,0-.21,2,10.53,10.53,0,0,0,.13,1.69,6.87,6.87,0,0,0,.42,1.51,4.52,4.52,0,0,0,.73,1.22,3.08,3.08,0,0,0,1.09.81A3.52,3.52,0,0,0,967.19,521.77Z"/><path class="cls-4" d="M980.43,522.92a3.29,3.29,0,0,1-2.37-.73,3.23,3.23,0,0,1-.75-2.38v-15l1.43-.12v15a2.34,2.34,0,0,0,.43,1.62,1.72,1.72,0,0,0,1.29.45,7.36,7.36,0,0,0,1.76-.27l.06,1.13A8.19,8.19,0,0,1,980.43,522.92Z"/><path class="cls-4" d="M990.17,522.93a5.34,5.34,0,0,1-4.22-1.78,7.06,7.06,0,0,1-1.56-4.83,7.37,7.37,0,0,1,1.53-4.82,5,5,0,0,1,4-1.93,4.53,4.53,0,0,1,3.63,1.62,6.48,6.48,0,0,1,1.37,4.34q0,.11,0,.43t0,.45h-8.94a6.15,6.15,0,0,0,1.2,3.92,3.78,3.78,0,0,0,3.09,1.45,7.25,7.25,0,0,0,2.18-.29,11.45,11.45,0,0,0,1.93-.83l.25,1.09A8.22,8.22,0,0,1,990.17,522.93Zm-4.2-7.7h7.31a5.11,5.11,0,0,0-.93-3.29,3.1,3.1,0,0,0-2.54-1.14,3.27,3.27,0,0,0-2.65,1.22A5.76,5.76,0,0,0,986,515.23Z"/><path class="cls-4" d="M1002.49,522.94a8.63,8.63,0,0,1-2.33-.3,6.09,6.09,0,0,1-1.72-.73l.21-1.22a8,8,0,0,0,3.7,1q3.18,0,3.29-2.36a2,2,0,0,0-.64-1.55,7.78,7.78,0,0,0-2.56-1.17l-1.11-.39q-3-.91-3-3.25a3.1,3.1,0,0,1,1.19-2.38,4.72,4.72,0,0,1,3.22-1,9.22,9.22,0,0,1,3.81.8l-.49,1.08a9.56,9.56,0,0,0-3.35-.68,3.39,3.39,0,0,0-2.14.61,2,2,0,0,0-.78,1.64,1.71,1.71,0,0,0,.51,1.33,5.37,5.37,0,0,0,2,.88l.6.21.49.18a6.57,6.57,0,0,1,2.83,1.47,3.23,3.23,0,0,1,.8,2.31,3.17,3.17,0,0,1-1.26,2.61A5.26,5.26,0,0,1,1002.49,522.94Z"/><path class="cls-4" d="M1017.17,522.65q0-11.31,0-12.84h1.2l.09,2.53a6,6,0,0,1,1.76-1.88,3.9,3.9,0,0,1,2.23-.73,7,7,0,0,1,1,.08l-.11,1.21a5.42,5.42,0,0,0-.89-.07,3.47,3.47,0,0,0-2.74,1.28,4.5,4.5,0,0,0-1.11,3v7.37Z"/><path class="cls-4" d="M1031.46,522.93a5.34,5.34,0,0,1-4.22-1.78,7.06,7.06,0,0,1-1.56-4.83,7.37,7.37,0,0,1,1.53-4.82,5,5,0,0,1,4-1.93,4.53,4.53,0,0,1,3.63,1.62,6.48,6.48,0,0,1,1.37,4.34q0,.11,0,.43t0,.45h-8.94a6.15,6.15,0,0,0,1.2,3.92,3.78,3.78,0,0,0,3.09,1.45,7.25,7.25,0,0,0,2.18-.29,11.45,11.45,0,0,0,1.93-.83l.25,1.09A8.22,8.22,0,0,1,1031.46,522.93Zm-4.2-7.7h7.31a5.11,5.11,0,0,0-.93-3.29,3.1,3.1,0,0,0-2.54-1.14,3.27,3.27,0,0,0-2.65,1.22A5.76,5.76,0,0,0,1027.27,515.23Z"/><path class="cls-4" d="M1043.78,522.94a8.63,8.63,0,0,1-2.33-.3,6.09,6.09,0,0,1-1.72-.73l.21-1.22a8,8,0,0,0,3.7,1q3.18,0,3.29-2.36a2,2,0,0,0-.64-1.55,7.78,7.78,0,0,0-2.56-1.17l-1.11-.39q-3-.91-3-3.25a3.1,3.1,0,0,1,1.19-2.38,4.72,4.72,0,0,1,3.22-1,9.22,9.22,0,0,1,3.81.8l-.49,1.08a9.56,9.56,0,0,0-3.35-.68,3.39,3.39,0,0,0-2.14.61A2,2,0,0,0,1041,513a1.71,1.71,0,0,0,.51,1.33,5.37,5.37,0,0,0,2,.88l.6.21.49.18a6.57,6.57,0,0,1,2.83,1.47,3.23,3.23,0,0,1,.8,2.31A3.17,3.17,0,0,1,1047,522,5.26,5.26,0,0,1,1043.78,522.94Z"/><path class="cls-4" d="M1052.05,528.36V509.8h1.3l.13,1.83a7,7,0,0,1,1.83-1.55,4.42,4.42,0,0,1,2.17-.52,4.8,4.8,0,0,1,4.11,1.82,8.14,8.14,0,0,1,1.37,5,7.41,7.41,0,0,1-1.44,4.72,4.7,4.7,0,0,1-3.9,1.83,5,5,0,0,1-2.39-.6,4.84,4.84,0,0,1-1.78-1.57q.06,1.44.06,2.84v4.66Zm5.47-6.63a3.28,3.28,0,0,0,1.77-.48,3.57,3.57,0,0,0,1.23-1.28,6.6,6.6,0,0,0,.69-1.74,8.31,8.31,0,0,0,.23-2,8.49,8.49,0,0,0-.22-2,6.68,6.68,0,0,0-.67-1.74,3.48,3.48,0,0,0-1.24-1.28,3.37,3.37,0,0,0-1.79-.48,4.19,4.19,0,0,0-1.88.39,3.08,3.08,0,0,0-1.25,1.12,5.2,5.2,0,0,0-.67,1.65,9.42,9.42,0,0,0-.21,2.09,12,12,0,0,0,.2,2.33,5.78,5.78,0,0,0,.65,1.78,2.93,2.93,0,0,0,1.25,1.18A4.29,4.29,0,0,0,1057.52,521.73Z"/><path class="cls-4" d="M1072,522.93a5.45,5.45,0,0,1-3.08-.88,5.63,5.63,0,0,1-2-2.38,8,8,0,0,1-.7-3.4,8.42,8.42,0,0,1,.4-2.65,6.39,6.39,0,0,1,1.15-2.12,5.23,5.23,0,0,1,1.86-1.41,5.87,5.87,0,0,1,2.47-.51,5.38,5.38,0,0,1,5.12,3.26,8.32,8.32,0,0,1,.66,3.4,8.21,8.21,0,0,1-.68,3.42,5.51,5.51,0,0,1-2,2.38A5.63,5.63,0,0,1,1072,522.93Zm.11-1.16a3.77,3.77,0,0,0,2.37-.74,4.22,4.22,0,0,0,1.41-2,8.23,8.23,0,0,0,.44-2.8,6.85,6.85,0,0,0-1.05-4,3.65,3.65,0,0,0-3.21-1.51,3.83,3.83,0,0,0-2.4.76,4.34,4.34,0,0,0-1.45,2,8,8,0,0,0-.46,2.81,6.52,6.52,0,0,0,1.12,3.94A3.75,3.75,0,0,0,1072.1,521.77Z"/><path class="cls-4" d="M1081.69,522.65V509.8H1083l.2,2a4.81,4.81,0,0,1,1.86-1.62,5.48,5.48,0,0,1,2.51-.59,4.06,4.06,0,0,1,3.26,1.22,5.93,5.93,0,0,1,1,3.89v8h-1.46V514a3.87,3.87,0,0,0-.73-2.46,2.81,2.81,0,0,0-2.19-.75,4.45,4.45,0,0,0-2.85.88,3.77,3.77,0,0,0-1.39,2.27q0,.55,0,1.15v7.54Z"/><path class="cls-4" d="M1099.9,522.94a8.63,8.63,0,0,1-2.33-.3,6.09,6.09,0,0,1-1.72-.73l.21-1.22a8,8,0,0,0,3.7,1q3.18,0,3.29-2.36a2,2,0,0,0-.64-1.55,7.78,7.78,0,0,0-2.56-1.17l-1.11-.39q-3-.91-3-3.25a3.1,3.1,0,0,1,1.19-2.38,4.72,4.72,0,0,1,3.22-1,9.22,9.22,0,0,1,3.81.8l-.49,1.08a9.56,9.56,0,0,0-3.35-.68,3.39,3.39,0,0,0-2.14.61,2,2,0,0,0-.78,1.64,1.71,1.71,0,0,0,.51,1.33,5.37,5.37,0,0,0,2,.88l.6.21.49.18a6.57,6.57,0,0,1,2.83,1.47,3.23,3.23,0,0,1,.8,2.31,3.17,3.17,0,0,1-1.26,2.61A5.26,5.26,0,0,1,1099.9,522.94Z"/><path class="cls-4" d="M1113.37,522.93a5.34,5.34,0,0,1-4.22-1.78,7.06,7.06,0,0,1-1.56-4.83,7.37,7.37,0,0,1,1.53-4.82,5,5,0,0,1,4-1.93,4.53,4.53,0,0,1,3.63,1.62,6.48,6.48,0,0,1,1.37,4.34q0,.11,0,.43t0,.45h-8.94a6.15,6.15,0,0,0,1.2,3.92,3.78,3.78,0,0,0,3.09,1.45,7.25,7.25,0,0,0,2.18-.29,11.45,11.45,0,0,0,1.93-.83l.25,1.09A8.22,8.22,0,0,1,1113.37,522.93Zm-4.2-7.7h7.31a5.11,5.11,0,0,0-.93-3.29,3.1,3.1,0,0,0-2.54-1.14,3.27,3.27,0,0,0-2.65,1.22A5.76,5.76,0,0,0,1109.18,515.23Z"/><path class="cls-4" d="M951.48,542v-2h1.45v2Zm0,15.47V544.6h1.46v12.84Z"/><path class="cls-4" d="M958.32,557.45V545.67h-2.11l.09-.9,2-.16v-.48a6.07,6.07,0,0,1,.88-3.68,3.21,3.21,0,0,1,2.71-1.15,15.1,15.1,0,0,1,1.79.18l-.11,1q-1.12-.13-1.52-.13a1.91,1.91,0,0,0-1.82.86,6.67,6.67,0,0,0-.49,3v.41h3.13v1.07h-3.13v11.78Z"/><path class="cls-4" d="M976.08,557.74a8.63,8.63,0,0,1-2.33-.3,6.09,6.09,0,0,1-1.72-.73l.21-1.22a8,8,0,0,0,3.7,1q3.18,0,3.29-2.36a2,2,0,0,0-.64-1.55,7.78,7.78,0,0,0-2.56-1.17l-1.11-.39q-3-.91-3-3.25a3.1,3.1,0,0,1,1.19-2.38,4.72,4.72,0,0,1,3.22-1,9.22,9.22,0,0,1,3.81.8l-.49,1.08a9.56,9.56,0,0,0-3.35-.68,3.39,3.39,0,0,0-2.14.61,2,2,0,0,0-.78,1.64,1.71,1.71,0,0,0,.51,1.33,5.37,5.37,0,0,0,2,.88l.6.21.49.18a6.57,6.57,0,0,1,2.83,1.47,3.23,3.23,0,0,1,.8,2.31,3.17,3.17,0,0,1-1.26,2.61A5.26,5.26,0,0,1,976.08,557.74Z"/><path class="cls-4" d="M989.13,557.76a7.27,7.27,0,0,1-1.87-.23,5.41,5.41,0,0,1-1.6-.71,3.33,3.33,0,0,1-1.17-1.38,4.8,4.8,0,0,1-.43-2.1V544.6h1.45v8.78a3.8,3.8,0,0,0,.28,1.55,2.06,2.06,0,0,0,.81,1,3.6,3.6,0,0,0,1.13.45,6.67,6.67,0,0,0,1.39.13,6.33,6.33,0,0,0,1.38-.13,3.49,3.49,0,0,0,1.11-.46,2.09,2.09,0,0,0,.79-1,3.8,3.8,0,0,0,.28-1.53V544.6h1.45v8.74a5.12,5.12,0,0,1-.28,1.76,3.58,3.58,0,0,1-.75,1.27,3.9,3.9,0,0,1-1.13.81,5.3,5.3,0,0,1-1.36.45A8.22,8.22,0,0,1,989.13,557.76Z"/><path class="cls-4" d="M1003.63,557.73a5.69,5.69,0,0,1-3.23-.91,5.6,5.6,0,0,1-2-2.38,7.83,7.83,0,0,1-.67-3.28,8.32,8.32,0,0,1,.4-2.6,7,7,0,0,1,1.13-2.16,5.13,5.13,0,0,1,1.89-1.48,6,6,0,0,1,2.57-.54,7.11,7.11,0,0,1,1.85.25,4,4,0,0,1,1.37.59l-.46,1.09a5.73,5.73,0,0,0-2.86-.68,3.8,3.8,0,0,0-3.18,1.52,6.41,6.41,0,0,0-1.17,4,6.1,6.1,0,0,0,1.17,3.88,3.83,3.83,0,0,0,3.18,1.48,7.62,7.62,0,0,0,3-.7l.22,1a4.11,4.11,0,0,1-1.43.64A7,7,0,0,1,1003.63,557.73Z"/><path class="cls-4" d="M1015.71,557.73a5.69,5.69,0,0,1-3.23-.91,5.6,5.6,0,0,1-2-2.38,7.83,7.83,0,0,1-.67-3.28,8.32,8.32,0,0,1,.4-2.6,7,7,0,0,1,1.13-2.16,5.13,5.13,0,0,1,1.89-1.48,6,6,0,0,1,2.57-.54,7.11,7.11,0,0,1,1.85.25,4,4,0,0,1,1.37.59l-.46,1.09a5.73,5.73,0,0,0-2.86-.68,3.8,3.8,0,0,0-3.18,1.52,6.41,6.41,0,0,0-1.17,4,6.1,6.1,0,0,0,1.17,3.88,3.83,3.83,0,0,0,3.18,1.48,7.62,7.62,0,0,0,3-.7l.22,1a4.11,4.11,0,0,1-1.43.64A7,7,0,0,1,1015.71,557.73Z"/><path class="cls-4" d="M1027.78,557.73a5.34,5.34,0,0,1-4.22-1.78,7.06,7.06,0,0,1-1.56-4.83,7.37,7.37,0,0,1,1.53-4.82,5,5,0,0,1,4-1.93,4.53,4.53,0,0,1,3.63,1.62,6.48,6.48,0,0,1,1.37,4.34q0,.11,0,.43t0,.45h-8.94a6.15,6.15,0,0,0,1.2,3.92,3.78,3.78,0,0,0,3.09,1.45,7.25,7.25,0,0,0,2.18-.29,11.45,11.45,0,0,0,1.93-.83l.25,1.09A8.22,8.22,0,0,1,1027.78,557.73Zm-4.2-7.7h7.31a5.11,5.11,0,0,0-.93-3.29,3.1,3.1,0,0,0-2.54-1.14,3.27,3.27,0,0,0-2.65,1.22A5.76,5.76,0,0,0,1023.58,550Z"/><path class="cls-4" d="M1040.09,557.74a8.63,8.63,0,0,1-2.33-.3,6.09,6.09,0,0,1-1.72-.73l.21-1.22a8,8,0,0,0,3.7,1q3.18,0,3.29-2.36a2,2,0,0,0-.64-1.55,7.78,7.78,0,0,0-2.56-1.17l-1.11-.39q-3-.91-3-3.25a3.1,3.1,0,0,1,1.19-2.38,4.72,4.72,0,0,1,3.22-1,9.22,9.22,0,0,1,3.81.8l-.49,1.08a9.56,9.56,0,0,0-3.35-.68,3.39,3.39,0,0,0-2.14.61,2,2,0,0,0-.78,1.64,1.71,1.71,0,0,0,.51,1.33,5.37,5.37,0,0,0,2,.88l.6.21.49.18a6.57,6.57,0,0,1,2.83,1.47,3.23,3.23,0,0,1,.8,2.31,3.17,3.17,0,0,1-1.26,2.61A5.26,5.26,0,0,1,1040.09,557.74Z"/><path class="cls-4" d="M1052.12,557.74a8.63,8.63,0,0,1-2.33-.3,6.09,6.09,0,0,1-1.72-.73l.21-1.22a8,8,0,0,0,3.7,1q3.18,0,3.29-2.36a2,2,0,0,0-.64-1.55,7.78,7.78,0,0,0-2.56-1.17L1051,551q-3-.91-3-3.25a3.1,3.1,0,0,1,1.19-2.38,4.72,4.72,0,0,1,3.22-1,9.22,9.22,0,0,1,3.81.8l-.49,1.08a9.56,9.56,0,0,0-3.35-.68,3.39,3.39,0,0,0-2.14.61,2,2,0,0,0-.78,1.64,1.71,1.71,0,0,0,.51,1.33,5.37,5.37,0,0,0,2,.88l.6.21.49.18a6.57,6.57,0,0,1,2.83,1.47,3.23,3.23,0,0,1,.8,2.31,3.17,3.17,0,0,1-1.26,2.61A5.26,5.26,0,0,1,1052.12,557.74Z"/><path class="cls-4" d="M1061.2,557.45V545.67h-2.11l.09-.9,2-.16v-.48a6.07,6.07,0,0,1,.88-3.68,3.21,3.21,0,0,1,2.71-1.15,15.1,15.1,0,0,1,1.79.18l-.11,1q-1.12-.13-1.52-.13a1.91,1.91,0,0,0-1.82.86,6.67,6.67,0,0,0-.49,3v.41h3.13v1.07h-3.13v11.78Z"/><path class="cls-4" d="M1073.61,557.76a7.27,7.27,0,0,1-1.87-.23,5.41,5.41,0,0,1-1.6-.71,3.33,3.33,0,0,1-1.17-1.38,4.8,4.8,0,0,1-.43-2.1V544.6H1070v8.78a3.8,3.8,0,0,0,.28,1.55,2.06,2.06,0,0,0,.81,1,3.6,3.6,0,0,0,1.13.45,6.67,6.67,0,0,0,1.39.13,6.33,6.33,0,0,0,1.38-.13,3.49,3.49,0,0,0,1.11-.46,2.09,2.09,0,0,0,.79-1,3.8,3.8,0,0,0,.28-1.53V544.6h1.45v8.74a5.12,5.12,0,0,1-.28,1.76,3.58,3.58,0,0,1-.75,1.27,3.9,3.9,0,0,1-1.13.81,5.3,5.3,0,0,1-1.36.45A8.22,8.22,0,0,1,1073.61,557.76Z"/><path class="cls-4" d="M1086,557.72a3.29,3.29,0,0,1-2.37-.73,3.23,3.23,0,0,1-.75-2.38v-15l1.43-.12v15a2.34,2.34,0,0,0,.43,1.62,1.72,1.72,0,0,0,1.29.45,7.36,7.36,0,0,0,1.76-.27l.06,1.13A8.19,8.19,0,0,1,1086,557.72Z"/><path class="cls-4" d="M919.91,673.63V655.81l1.45-.13v6.47a.46.46,0,0,1,0,.11.73.73,0,0,0,0,.13l0,.35a5.21,5.21,0,0,1,4.5-2.18q4.18,0,4.18,5.05v8h-1.44v-7.75a5.65,5.65,0,0,0-.67-3.13,2.66,2.66,0,0,0-2.36-1,4.34,4.34,0,0,0-2.79.88,3.68,3.68,0,0,0-1.37,2.28q0,.47,0,1.39v7.29Z"/><path class="cls-4" d="M937.77,673.91a4.38,4.38,0,0,1-2.91-.91,3.22,3.22,0,0,1-1.09-2.61,3.42,3.42,0,0,1,.43-1.75,3.26,3.26,0,0,1,1.26-1.21,7.44,7.44,0,0,1,1.89-.72,15.42,15.42,0,0,1,2.47-.36l2.23-.15v-1.43a3.21,3.21,0,0,0-.67-2.22,2.79,2.79,0,0,0-2.16-.74,7.78,7.78,0,0,0-3.81,1l-.22-.51q-.17-.39-.24-.6a6.78,6.78,0,0,1,1.9-.79,8.79,8.79,0,0,1,2.3-.32,4.62,4.62,0,0,1,3.32,1,4.85,4.85,0,0,1,1,3.51v8.58h-1.14q-.06-.27-.17-1.07t-.11-.82A4.91,4.91,0,0,1,937.77,673.91Zm0-1.16a4.29,4.29,0,0,0,2.67-.88,4.14,4.14,0,0,0,1.53-2.46v-2.19l-1.7.14a10,10,0,0,0-4,.94,2.3,2.3,0,0,0-1.11,2.11,2.15,2.15,0,0,0,.71,1.76A2.86,2.86,0,0,0,937.81,672.75Z"/><path class="cls-4" d="M947.91,673.63V660.79h1.27l.2,2a4.81,4.81,0,0,1,1.86-1.62,5.48,5.48,0,0,1,2.51-.59,4.06,4.06,0,0,1,3.26,1.22,5.93,5.93,0,0,1,1,3.89v8h-1.46V665a3.87,3.87,0,0,0-.73-2.46,2.81,2.81,0,0,0-2.19-.75,4.45,4.45,0,0,0-2.85.88,3.77,3.77,0,0,0-1.39,2.27q0,.55,0,1.15v7.54Z"/><path class="cls-4" d="M967.23,673.9a4.85,4.85,0,0,1-4-1.78,7.64,7.64,0,0,1-1.44-4.92,7.43,7.43,0,0,1,1.48-4.8,4.77,4.77,0,0,1,3.91-1.85,6,6,0,0,1,2.39.52,3.73,3.73,0,0,1,1.82,1.61v-6.87l1.41-.13v18h-1.21l-.21-1.93a4.28,4.28,0,0,1-1.81,1.65A5.28,5.28,0,0,1,967.23,673.9Zm0-1.15a4.32,4.32,0,0,0,1.91-.4,3.29,3.29,0,0,0,1.31-1.12,5.27,5.27,0,0,0,.73-1.67,8.48,8.48,0,0,0,.24-2.09q0-5.73-4.22-5.73a3.25,3.25,0,0,0-1.76.47,3.4,3.4,0,0,0-1.2,1.28,6.63,6.63,0,0,0-.65,1.75,9.08,9.08,0,0,0-.21,2,10.53,10.53,0,0,0,.13,1.69,6.87,6.87,0,0,0,.42,1.51,4.52,4.52,0,0,0,.73,1.22,3.08,3.08,0,0,0,1.09.81A3.52,3.52,0,0,0,967.19,672.75Z"/><path class="cls-4" d="M980.43,673.9a3.29,3.29,0,0,1-2.37-.73,3.23,3.23,0,0,1-.75-2.38v-15l1.43-.12v15a2.34,2.34,0,0,0,.43,1.62,1.72,1.72,0,0,0,1.29.45,7.36,7.36,0,0,0,1.76-.27l.06,1.13A8.19,8.19,0,0,1,980.43,673.9Z"/><path class="cls-4" d="M990.17,673.91a5.34,5.34,0,0,1-4.22-1.78,7.06,7.06,0,0,1-1.56-4.83,7.37,7.37,0,0,1,1.53-4.82,5,5,0,0,1,4-1.93,4.53,4.53,0,0,1,3.63,1.62,6.48,6.48,0,0,1,1.37,4.34q0,.11,0,.43t0,.45h-8.94a6.15,6.15,0,0,0,1.2,3.92,3.78,3.78,0,0,0,3.09,1.45,7.25,7.25,0,0,0,2.18-.29,11.45,11.45,0,0,0,1.93-.83l.25,1.09A8.22,8.22,0,0,1,990.17,673.91Zm-4.2-7.7h7.31a5.11,5.11,0,0,0-.93-3.29,3.1,3.1,0,0,0-2.54-1.14,3.27,3.27,0,0,0-2.65,1.22A5.76,5.76,0,0,0,986,666.21Z"/><path class="cls-4" d="M1002.49,673.93a8.63,8.63,0,0,1-2.33-.3,6.09,6.09,0,0,1-1.72-.73l.21-1.22a8,8,0,0,0,3.7,1q3.18,0,3.29-2.36a2,2,0,0,0-.64-1.55,7.78,7.78,0,0,0-2.56-1.17l-1.11-.39q-3-.91-3-3.25a3.1,3.1,0,0,1,1.19-2.38,4.72,4.72,0,0,1,3.22-1,9.22,9.22,0,0,1,3.81.8l-.49,1.08a9.56,9.56,0,0,0-3.35-.68,3.39,3.39,0,0,0-2.14.61,2,2,0,0,0-.78,1.64,1.71,1.71,0,0,0,.51,1.33,5.37,5.37,0,0,0,2,.88l.6.21.49.18a6.57,6.57,0,0,1,2.83,1.47,3.23,3.23,0,0,1,.8,2.31,3.17,3.17,0,0,1-1.26,2.61A5.26,5.26,0,0,1,1002.49,673.93Z"/><path class="cls-4" d="M1017.17,673.63q0-11.31,0-12.84h1.2l.09,2.53a6,6,0,0,1,1.76-1.87,3.9,3.9,0,0,1,2.23-.73,7,7,0,0,1,1,.08l-.11,1.21a5.42,5.42,0,0,0-.89-.07,3.47,3.47,0,0,0-2.74,1.28,4.5,4.5,0,0,0-1.11,3v7.37Z"/><path class="cls-4" d="M1031.46,673.91a5.34,5.34,0,0,1-4.22-1.78,7.06,7.06,0,0,1-1.56-4.83,7.37,7.37,0,0,1,1.53-4.82,5,5,0,0,1,4-1.93,4.53,4.53,0,0,1,3.63,1.62,6.48,6.48,0,0,1,1.37,4.34q0,.11,0,.43t0,.45h-8.94a6.15,6.15,0,0,0,1.2,3.92,3.78,3.78,0,0,0,3.09,1.45,7.25,7.25,0,0,0,2.18-.29,11.45,11.45,0,0,0,1.93-.83l.25,1.09A8.22,8.22,0,0,1,1031.46,673.91Zm-4.2-7.7h7.31a5.11,5.11,0,0,0-.93-3.29,3.1,3.1,0,0,0-2.54-1.14,3.27,3.27,0,0,0-2.65,1.22A5.76,5.76,0,0,0,1027.27,666.21Z"/><path class="cls-4" d="M1043.78,673.93a8.63,8.63,0,0,1-2.33-.3,6.09,6.09,0,0,1-1.72-.73l.21-1.22a8,8,0,0,0,3.7,1q3.18,0,3.29-2.36a2,2,0,0,0-.64-1.55,7.78,7.78,0,0,0-2.56-1.17l-1.11-.39q-3-.91-3-3.25a3.1,3.1,0,0,1,1.19-2.38,4.72,4.72,0,0,1,3.22-1,9.22,9.22,0,0,1,3.81.8l-.49,1.08a9.56,9.56,0,0,0-3.35-.68,3.39,3.39,0,0,0-2.14.61A2,2,0,0,0,1041,664a1.71,1.71,0,0,0,.51,1.33,5.37,5.37,0,0,0,2,.88l.6.21.49.18a6.57,6.57,0,0,1,2.83,1.47,3.23,3.23,0,0,1,.8,2.31A3.17,3.17,0,0,1,1047,673,5.26,5.26,0,0,1,1043.78,673.93Z"/><path class="cls-4" d="M1052.05,679.35V660.79h1.3l.13,1.83a7,7,0,0,1,1.83-1.55,4.42,4.42,0,0,1,2.17-.52,4.8,4.8,0,0,1,4.11,1.82,8.14,8.14,0,0,1,1.37,5,7.41,7.41,0,0,1-1.44,4.72,4.7,4.7,0,0,1-3.9,1.83,5,5,0,0,1-2.39-.6,4.84,4.84,0,0,1-1.78-1.57q.06,1.44.06,2.84v4.66Zm5.47-6.63a3.28,3.28,0,0,0,1.77-.48,3.57,3.57,0,0,0,1.23-1.28,6.6,6.6,0,0,0,.69-1.74,8.31,8.31,0,0,0,.23-2,8.49,8.49,0,0,0-.22-2,6.68,6.68,0,0,0-.67-1.74,3.48,3.48,0,0,0-1.24-1.28,3.37,3.37,0,0,0-1.79-.48,4.19,4.19,0,0,0-1.88.39,3.08,3.08,0,0,0-1.25,1.12,5.2,5.2,0,0,0-.67,1.65,9.42,9.42,0,0,0-.21,2.09,12,12,0,0,0,.2,2.33,5.78,5.78,0,0,0,.65,1.78,2.93,2.93,0,0,0,1.25,1.18A4.29,4.29,0,0,0,1057.52,672.72Z"/><path class="cls-4" d="M1072,673.91a5.45,5.45,0,0,1-3.08-.88,5.63,5.63,0,0,1-2-2.38,8,8,0,0,1-.7-3.4,8.42,8.42,0,0,1,.4-2.65,6.39,6.39,0,0,1,1.15-2.12,5.23,5.23,0,0,1,1.86-1.41,5.87,5.87,0,0,1,2.47-.51,5.38,5.38,0,0,1,5.12,3.26,8.32,8.32,0,0,1,.66,3.4,8.21,8.21,0,0,1-.68,3.42,5.51,5.51,0,0,1-2,2.38A5.63,5.63,0,0,1,1072,673.91Zm.11-1.16a3.77,3.77,0,0,0,2.37-.74,4.22,4.22,0,0,0,1.41-2,8.23,8.23,0,0,0,.44-2.8,6.85,6.85,0,0,0-1.05-4,3.65,3.65,0,0,0-3.21-1.51,3.83,3.83,0,0,0-2.4.76,4.34,4.34,0,0,0-1.45,2,8,8,0,0,0-.46,2.81,6.52,6.52,0,0,0,1.12,3.94A3.75,3.75,0,0,0,1072.1,672.75Z"/><path class="cls-4" d="M1081.69,673.63V660.79H1083l.2,2a4.81,4.81,0,0,1,1.86-1.62,5.48,5.48,0,0,1,2.51-.59,4.06,4.06,0,0,1,3.26,1.22,5.93,5.93,0,0,1,1,3.89v8h-1.46V665a3.87,3.87,0,0,0-.73-2.46,2.81,2.81,0,0,0-2.19-.75,4.45,4.45,0,0,0-2.85.88,3.77,3.77,0,0,0-1.39,2.27q0,.55,0,1.15v7.54Z"/><path class="cls-4" d="M1099.9,673.93a8.63,8.63,0,0,1-2.33-.3,6.09,6.09,0,0,1-1.72-.73l.21-1.22a8,8,0,0,0,3.7,1q3.18,0,3.29-2.36a2,2,0,0,0-.64-1.55,7.78,7.78,0,0,0-2.56-1.17l-1.11-.39q-3-.91-3-3.25a3.1,3.1,0,0,1,1.19-2.38,4.72,4.72,0,0,1,3.22-1,9.22,9.22,0,0,1,3.81.8l-.49,1.08a9.56,9.56,0,0,0-3.35-.68,3.39,3.39,0,0,0-2.14.61,2,2,0,0,0-.78,1.64,1.71,1.71,0,0,0,.51,1.33,5.37,5.37,0,0,0,2,.88l.6.21.49.18a6.57,6.57,0,0,1,2.83,1.47,3.23,3.23,0,0,1,.8,2.31,3.17,3.17,0,0,1-1.26,2.61A5.26,5.26,0,0,1,1099.9,673.93Z"/><path class="cls-4" d="M1113.37,673.91a5.34,5.34,0,0,1-4.22-1.78,7.06,7.06,0,0,1-1.56-4.83,7.37,7.37,0,0,1,1.53-4.82,5,5,0,0,1,4-1.93,4.53,4.53,0,0,1,3.63,1.62,6.48,6.48,0,0,1,1.37,4.34q0,.11,0,.43t0,.45h-8.94a6.15,6.15,0,0,0,1.2,3.92,3.78,3.78,0,0,0,3.09,1.45,7.25,7.25,0,0,0,2.18-.29,11.45,11.45,0,0,0,1.93-.83l.25,1.09A8.22,8.22,0,0,1,1113.37,673.91Zm-4.2-7.7h7.31a5.11,5.11,0,0,0-.93-3.29,3.1,3.1,0,0,0-2.54-1.14,3.27,3.27,0,0,0-2.65,1.22A5.76,5.76,0,0,0,1109.18,666.21Z"/><path class="cls-4" d="M937.29,693v-2h1.45v2Zm0,15.47V695.59h1.46v12.84Z"/><path class="cls-4" d="M944.12,708.43V696.65H942l.09-.9,2-.16v-.48a6.07,6.07,0,0,1,.88-3.68,3.21,3.21,0,0,1,2.71-1.15,15.1,15.1,0,0,1,1.79.18l-.11,1q-1.12-.13-1.52-.13a1.91,1.91,0,0,0-1.82.86,6.67,6.67,0,0,0-.49,3v.41h3.13v1.07h-3.13v11.78Z"/><path class="cls-4" d="M962.92,708.75a7.27,7.27,0,0,1-1.87-.23,5.41,5.41,0,0,1-1.6-.71,3.33,3.33,0,0,1-1.17-1.38,4.8,4.8,0,0,1-.43-2.1v-8.74h1.45v8.78a3.8,3.8,0,0,0,.28,1.55,2.06,2.06,0,0,0,.81,1,3.6,3.6,0,0,0,1.13.45,6.67,6.67,0,0,0,1.39.13,6.33,6.33,0,0,0,1.38-.13,3.49,3.49,0,0,0,1.11-.46,2.09,2.09,0,0,0,.79-1,3.8,3.8,0,0,0,.28-1.53v-8.78h1.45v8.74a5.12,5.12,0,0,1-.28,1.76,3.58,3.58,0,0,1-.75,1.27,3.9,3.9,0,0,1-1.13.81,5.3,5.3,0,0,1-1.36.45A8.22,8.22,0,0,1,962.92,708.75Z"/><path class="cls-4" d="M972.06,708.43V695.59h1.27l.2,2a4.81,4.81,0,0,1,1.86-1.62,5.48,5.48,0,0,1,2.51-.59,4.06,4.06,0,0,1,3.26,1.22,5.93,5.93,0,0,1,1,3.89v8h-1.46v-8.62a3.87,3.87,0,0,0-.73-2.46,2.81,2.81,0,0,0-2.19-.75,4.45,4.45,0,0,0-2.85.88,3.77,3.77,0,0,0-1.39,2.27q0,.55,0,1.15v7.54Z"/><path class="cls-4" d="M990.27,708.73a8.63,8.63,0,0,1-2.33-.3,6.09,6.09,0,0,1-1.72-.73l.21-1.22a8,8,0,0,0,3.7,1q3.18,0,3.29-2.36a2,2,0,0,0-.64-1.55,7.78,7.78,0,0,0-2.56-1.17l-1.11-.39q-3-.91-3-3.25a3.1,3.1,0,0,1,1.19-2.38,4.72,4.72,0,0,1,3.22-1,9.22,9.22,0,0,1,3.81.8l-.49,1.08a9.56,9.56,0,0,0-3.35-.68,3.39,3.39,0,0,0-2.14.61,2,2,0,0,0-.78,1.64,1.71,1.71,0,0,0,.51,1.33,5.37,5.37,0,0,0,2,.88l.6.21.49.18a6.57,6.57,0,0,1,2.83,1.47,3.23,3.23,0,0,1,.8,2.31,3.17,3.17,0,0,1-1.26,2.61A5.26,5.26,0,0,1,990.27,708.73Z"/><path class="cls-4" d="M1003.32,708.75a7.27,7.27,0,0,1-1.87-.23,5.41,5.41,0,0,1-1.6-.71,3.33,3.33,0,0,1-1.17-1.38,4.8,4.8,0,0,1-.43-2.1v-8.74h1.45v8.78a3.8,3.8,0,0,0,.28,1.55,2.06,2.06,0,0,0,.81,1,3.6,3.6,0,0,0,1.13.45,6.67,6.67,0,0,0,1.39.13,6.33,6.33,0,0,0,1.38-.13,3.49,3.49,0,0,0,1.11-.46,2.09,2.09,0,0,0,.79-1,3.8,3.8,0,0,0,.28-1.53v-8.78h1.45v8.74a5.12,5.12,0,0,1-.28,1.76,3.58,3.58,0,0,1-.75,1.27,3.9,3.9,0,0,1-1.13.81,5.3,5.3,0,0,1-1.36.45A8.22,8.22,0,0,1,1003.32,708.75Z"/><path class="cls-4" d="M1017.82,708.71a5.69,5.69,0,0,1-3.23-.91,5.6,5.6,0,0,1-2-2.38,7.83,7.83,0,0,1-.67-3.28,8.32,8.32,0,0,1,.4-2.6,7,7,0,0,1,1.13-2.16,5.13,5.13,0,0,1,1.89-1.48,6,6,0,0,1,2.57-.54,7.11,7.11,0,0,1,1.85.25,4,4,0,0,1,1.37.59l-.46,1.09a5.73,5.73,0,0,0-2.86-.68,3.8,3.8,0,0,0-3.18,1.52,6.41,6.41,0,0,0-1.17,4,6.1,6.1,0,0,0,1.17,3.88,3.83,3.83,0,0,0,3.18,1.48,7.62,7.62,0,0,0,3-.7l.22,1a4.11,4.11,0,0,1-1.43.64A7,7,0,0,1,1017.82,708.71Z"/><path class="cls-4" d="M1029.9,708.71a5.69,5.69,0,0,1-3.23-.91,5.6,5.6,0,0,1-2-2.38,7.83,7.83,0,0,1-.67-3.28,8.32,8.32,0,0,1,.4-2.6,7,7,0,0,1,1.13-2.16,5.13,5.13,0,0,1,1.89-1.48,6,6,0,0,1,2.57-.54,7.11,7.11,0,0,1,1.85.25,4,4,0,0,1,1.37.59l-.46,1.09a5.73,5.73,0,0,0-2.86-.68,3.8,3.8,0,0,0-3.18,1.52,6.41,6.41,0,0,0-1.17,4,6.1,6.1,0,0,0,1.17,3.88,3.83,3.83,0,0,0,3.18,1.48,7.62,7.62,0,0,0,3-.7l.22,1a4.11,4.11,0,0,1-1.43.64A7,7,0,0,1,1029.9,708.71Z"/><path class="cls-4" d="M1042,708.71a5.34,5.34,0,0,1-4.22-1.78,7.06,7.06,0,0,1-1.56-4.83,7.37,7.37,0,0,1,1.53-4.82,5,5,0,0,1,4-1.93,4.53,4.53,0,0,1,3.63,1.62,6.48,6.48,0,0,1,1.37,4.34q0,.11,0,.43t0,.45h-8.94a6.15,6.15,0,0,0,1.2,3.92,3.78,3.78,0,0,0,3.09,1.45,7.25,7.25,0,0,0,2.18-.29,11.45,11.45,0,0,0,1.93-.83l.25,1.09A8.22,8.22,0,0,1,1042,708.71Zm-4.2-7.7h7.31a5.11,5.11,0,0,0-.93-3.29,3.1,3.1,0,0,0-2.54-1.14,3.27,3.27,0,0,0-2.65,1.22A5.76,5.76,0,0,0,1037.77,701Z"/><path class="cls-4" d="M1054.28,708.73a8.63,8.63,0,0,1-2.33-.3,6.09,6.09,0,0,1-1.72-.73l.21-1.22a8,8,0,0,0,3.7,1q3.18,0,3.29-2.36a2,2,0,0,0-.64-1.55,7.78,7.78,0,0,0-2.56-1.17l-1.11-.39q-3-.91-3-3.25a3.1,3.1,0,0,1,1.19-2.38,4.72,4.72,0,0,1,3.22-1,9.22,9.22,0,0,1,3.81.8l-.49,1.08a9.56,9.56,0,0,0-3.35-.68,3.39,3.39,0,0,0-2.14.61,2,2,0,0,0-.78,1.64,1.71,1.71,0,0,0,.51,1.33,5.37,5.37,0,0,0,2,.88l.6.21.49.18a6.57,6.57,0,0,1,2.83,1.47,3.23,3.23,0,0,1,.8,2.31,3.17,3.17,0,0,1-1.26,2.61A5.26,5.26,0,0,1,1054.28,708.73Z"/><path class="cls-4" d="M1066.31,708.73a8.63,8.63,0,0,1-2.33-.3,6.09,6.09,0,0,1-1.72-.73l.21-1.22a8,8,0,0,0,3.7,1q3.18,0,3.29-2.36a2,2,0,0,0-.64-1.55,7.78,7.78,0,0,0-2.56-1.17l-1.11-.39q-3-.91-3-3.25a3.1,3.1,0,0,1,1.19-2.38,4.72,4.72,0,0,1,3.22-1,9.22,9.22,0,0,1,3.81.8l-.49,1.08a9.56,9.56,0,0,0-3.35-.68,3.39,3.39,0,0,0-2.14.61,2,2,0,0,0-.78,1.64,1.71,1.71,0,0,0,.51,1.33,5.37,5.37,0,0,0,2,.88l.6.21.49.18a6.57,6.57,0,0,1,2.83,1.47,3.23,3.23,0,0,1,.8,2.31,3.17,3.17,0,0,1-1.26,2.61A5.26,5.26,0,0,1,1066.31,708.73Z"/><path class="cls-4" d="M1075.39,708.43V696.65h-2.11l.09-.9,2-.16v-.48a6.07,6.07,0,0,1,.88-3.68,3.21,3.21,0,0,1,2.71-1.15,15.1,15.1,0,0,1,1.79.18l-.11,1q-1.12-.13-1.52-.13a1.91,1.91,0,0,0-1.82.86,6.67,6.67,0,0,0-.49,3v.41H1080v1.07h-3.13v11.78Z"/><path class="cls-4" d="M1087.8,708.75a7.27,7.27,0,0,1-1.87-.23,5.41,5.41,0,0,1-1.6-.71,3.33,3.33,0,0,1-1.17-1.38,4.8,4.8,0,0,1-.43-2.1v-8.74h1.45v8.78a3.8,3.8,0,0,0,.28,1.55,2.06,2.06,0,0,0,.81,1,3.6,3.6,0,0,0,1.13.45,6.67,6.67,0,0,0,1.39.13,6.33,6.33,0,0,0,1.38-.13,3.49,3.49,0,0,0,1.11-.46,2.09,2.09,0,0,0,.79-1,3.8,3.8,0,0,0,.28-1.53v-8.78h1.45v8.74a5.12,5.12,0,0,1-.28,1.76,3.58,3.58,0,0,1-.75,1.27,3.9,3.9,0,0,1-1.13.81,5.3,5.3,0,0,1-1.36.45A8.22,8.22,0,0,1,1087.8,708.75Z"/><path class="cls-4" d="M1100.17,708.7a3.29,3.29,0,0,1-2.37-.73,3.23,3.23,0,0,1-.75-2.38v-15l1.43-.12v15a2.34,2.34,0,0,0,.43,1.62,1.72,1.72,0,0,0,1.29.45,7.36,7.36,0,0,0,1.76-.27l.06,1.13A8.19,8.19,0,0,1,1100.17,708.7Z"/><polyline class="cls-2" points="239.68 425.16 221.01 425.16 221.01 317.13 239.68 317.13"/><line class="cls-2" x1="220.33" y1="371.15" x2="200.33" y2="371.15"/><path class="cls-4" d="M99.26,379.76a8.63,8.63,0,0,1-2.33-.3,6.09,6.09,0,0,1-1.72-.73l.21-1.22a8,8,0,0,0,3.7,1q3.18,0,3.29-2.36a2,2,0,0,0-.64-1.55,7.78,7.78,0,0,0-2.56-1.17l-1.11-.39q-3-.91-3-3.25a3.1,3.1,0,0,1,1.19-2.38,4.72,4.72,0,0,1,3.22-1,9.22,9.22,0,0,1,3.81.8l-.49,1.08a9.56,9.56,0,0,0-3.35-.68,3.39,3.39,0,0,0-2.14.61,2,2,0,0,0-.78,1.64,1.71,1.71,0,0,0,.51,1.33,5.37,5.37,0,0,0,2,.88l.6.21.49.18a6.57,6.57,0,0,1,2.83,1.47,3.23,3.23,0,0,1,.8,2.31,3.17,3.17,0,0,1-1.26,2.61A5.26,5.26,0,0,1,99.26,379.76Z"/><path class="cls-4" d="M112.74,379.75a5.34,5.34,0,0,1-4.22-1.78,7.06,7.06,0,0,1-1.56-4.83,7.37,7.37,0,0,1,1.53-4.82,5,5,0,0,1,4-1.93,4.53,4.53,0,0,1,3.63,1.62,6.48,6.48,0,0,1,1.37,4.34q0,.11,0,.43t0,.45h-8.94a6.15,6.15,0,0,0,1.2,3.92,3.78,3.78,0,0,0,3.09,1.45,7.25,7.25,0,0,0,2.18-.29,11.45,11.45,0,0,0,1.93-.83l.25,1.09A8.22,8.22,0,0,1,112.74,379.75Zm-4.2-7.7h7.31a5.11,5.11,0,0,0-.93-3.29,3.1,3.1,0,0,0-2.54-1.14,3.27,3.27,0,0,0-2.65,1.22A5.76,5.76,0,0,0,108.54,372Z"/><path class="cls-4" d="M124.92,379.74a3.29,3.29,0,0,1-2.37-.73,3.23,3.23,0,0,1-.75-2.38v-8.93H120l.11-.88,1.73-.16.39-2.94,1-.07v3H127v1.07h-3.75v8.63a2.7,2.7,0,0,0,.45,1.82,2.14,2.14,0,0,0,1.57.46,7.7,7.7,0,0,0,1.8-.27l.06,1.13A12.13,12.13,0,0,1,124.92,379.74Z"/><path class="cls-4" d="M133.8,379.74a3.29,3.29,0,0,1-2.37-.73,3.23,3.23,0,0,1-.75-2.38v-8.93h-1.82l.11-.88,1.73-.16.39-2.94,1-.07v3h3.75v1.07h-3.75v8.63a2.7,2.7,0,0,0,.45,1.82,2.14,2.14,0,0,0,1.57.46,7.7,7.7,0,0,0,1.8-.27l.06,1.13A12.13,12.13,0,0,1,133.8,379.74Z"/><path class="cls-4" d="M139.22,364v-2h1.45v2Zm0,15.47V366.62h1.46v12.84Z"/><path class="cls-4" d="M145.24,379.47V366.62h1.27l.2,2a4.81,4.81,0,0,1,1.86-1.62,5.48,5.48,0,0,1,2.51-.59,4.06,4.06,0,0,1,3.26,1.22,5.93,5.93,0,0,1,1,3.89v8h-1.46v-8.62a3.87,3.87,0,0,0-.73-2.46,2.81,2.81,0,0,0-2.19-.75,4.45,4.45,0,0,0-2.85.88,3.77,3.77,0,0,0-1.39,2.27q0,.55,0,1.15v7.54Z"/><path class="cls-4" d="M161.68,385.43l-.18-1.3h2.72a7.19,7.19,0,0,0,1.59-.16,4.76,4.76,0,0,0,1.17-.41,2.4,2.4,0,0,0,.81-.7,4.36,4.36,0,0,0,.52-.9,4.72,4.72,0,0,0,.29-1.15q.1-.71.12-1.3t0-1.49,0-.06l-.06-.81a5.49,5.49,0,0,1-1.75,1.72,4.71,4.71,0,0,1-2.46.6,5.19,5.19,0,0,1-2.09-.41,4.51,4.51,0,0,1-1.55-1.07,6.21,6.21,0,0,1-1-1.5,7.25,7.25,0,0,1-.59-1.68,8.06,8.06,0,0,1-.18-1.66,10.93,10.93,0,0,1,.17-2,7.31,7.31,0,0,1,.59-1.82,5.67,5.67,0,0,1,1.05-1.54,4.57,4.57,0,0,1,1.63-1,6.1,6.1,0,0,1,2.25-.39,4.68,4.68,0,0,1,2.17.49,5.28,5.28,0,0,1,1.75,1.55l.14-1.8h1.29v11.91q0,.77,0,1.25a12.15,12.15,0,0,1-.14,1.29,5.79,5.79,0,0,1-.34,1.34,6.18,6.18,0,0,1-.66,1.15,3.37,3.37,0,0,1-1.07,1,6.56,6.56,0,0,1-1.61.62,8.74,8.74,0,0,1-2.22.26Zm3-7.15a4.15,4.15,0,0,0,1.55-.28,3.34,3.34,0,0,0,1.14-.73,4.15,4.15,0,0,0,.76-1.06,4.83,4.83,0,0,0,.44-1.26,6.89,6.89,0,0,0,.13-1.34v-1.34a6.46,6.46,0,0,0-.22-1.72,5,5,0,0,0-.69-1.49,3.21,3.21,0,0,0-1.27-1.08,4.19,4.19,0,0,0-1.87-.4,3.58,3.58,0,0,0-1.56.33,3.25,3.25,0,0,0-1.14.88,5.17,5.17,0,0,0-.75,1.29,6.73,6.73,0,0,0-.43,1.51,9.94,9.94,0,0,0-.12,1.58,8.51,8.51,0,0,0,.11,1.39,6.19,6.19,0,0,0,.4,1.37,4.34,4.34,0,0,0,.73,1.2A3.32,3.32,0,0,0,163,378,4,4,0,0,0,164.64,378.28Z"/><path class="cls-4" d="M178.15,379.76a8.63,8.63,0,0,1-2.33-.3,6.09,6.09,0,0,1-1.72-.73l.21-1.22a8,8,0,0,0,3.7,1q3.18,0,3.29-2.36a2,2,0,0,0-.64-1.55,7.78,7.78,0,0,0-2.56-1.17l-1.11-.39q-3-.91-3-3.25a3.1,3.1,0,0,1,1.19-2.38,4.72,4.72,0,0,1,3.22-1,9.22,9.22,0,0,1,3.81.8l-.49,1.08a9.56,9.56,0,0,0-3.35-.68,3.39,3.39,0,0,0-2.14.61,2,2,0,0,0-.78,1.64,1.71,1.71,0,0,0,.51,1.33,5.37,5.37,0,0,0,2,.88l.6.21.49.18a6.57,6.57,0,0,1,2.83,1.47,3.23,3.23,0,0,1,.8,2.31,3.17,3.17,0,0,1-1.26,2.61A5.26,5.26,0,0,1,178.15,379.76Z"/></g></g></svg>